<?xml version="1.0" encoding="utf-8"?>
<!-- Generator: Adobe Illustrator 23.0.1, SVG Export Plug-In . SVG Version: 6.00 Build 0)  -->
<svg version="1.1" id="Capa_1" xmlns="http://www.w3.org/2000/svg" xmlns:xlink="http://www.w3.org/1999/xlink" x="0px" y="0px"
	 viewBox="0 0 2665.9 389.6" style="enable-background:new 0 0 2665.9 389.6;" xml:space="preserve">
<style type="text/css">
	.st0{fill:#1C3664;}
	.st1{fill:#DF001F;}
	.st2{fill:#FFC31F;}
	.st3{fill:#E00000;}
	.st4{fill:#DC0000;}
	.st5{fill:#030104;}
	.st6{font-family:'Courier';}
	.st7{font-size:43.0789px;}
	.st8{font-size:8.6158px;}
</style>
<title>iid-logo</title>
<path d="M580.8,132.6h18.7V73.5h-18.7v-8.2H628v8.2h-18.7v59.1H628v8.2h-47.2V132.6z"/>
<path d="M649.5,84.9h7.8l0.8,9.4h0.5c5.9-6.1,12.3-10.8,21-10.8c13.2,0,19.3,7.8,19.3,22.5v34.7h-9.5v-33.5
	c0-10.6-3.7-15.5-12.8-15.5c-6.7,0-11.2,3.3-17.6,10v39h-9.5V84.9z"/>
<path d="M719.7,85.5l16.2-0.6h32.5v7.7h-48.8L719.7,85.5L719.7,85.5z M735.7,80.2c0-13.6,7.1-22.7,22.5-22.7c5.5,0,11,1.1,16.1,3.2
	l-2.2,7.1c-4.1-1.8-8.5-2.7-13-2.6c-10,0-14,5.6-14,14.6v61h-9.4L735.7,80.2L735.7,80.2z"/>
<path d="M784.7,112.7c0-18.2,13.6-29.2,28.5-29.2c16.1,0,25.5,10.5,25.5,26.2c0,1.9-0.2,3.9-0.5,5.8h-47.3v-7.4h41.7l-2.4,2.6
	c0-13.2-6.6-19.8-16.8-19.8c-10.4,0-19.3,7.8-19.3,21.7c0,14.5,9.4,21.9,21.9,21.9c6.1,0,12-1.9,17-5.3l3.5,6.2
	c-6.4,4.4-13.9,6.7-21.6,6.7C798,142.2,784.7,131.4,784.7,112.7z"/>
<path d="M862.5,84.9h7.9l0.9,13.2h0.2c5.9-9.1,14.6-14.6,25-14.6c3.8-0.1,7.6,0.7,11,2.3l-2.2,8.2c-3.3-1.3-6.8-1.9-10.4-1.8
	c-8.4,0-16.3,4.3-23,16v32.7h-9.5v-56L862.5,84.9z"/>
<path d="M922.7,112.7c0-18.2,13.6-29.2,28.5-29.2c16.1,0,25.5,10.5,25.5,26.2c0,1.9-0.2,3.9-0.5,5.8h-47.3v-7.4h41.7l-2.4,2.6
	c0-13.2-6.6-19.8-16.8-19.8c-10.4,0-19.3,7.8-19.3,21.7c0,14.5,9.4,21.9,21.9,21.9c6.1,0,12-1.9,17-5.3l3.5,6.2
	c-6.4,4.4-13.9,6.7-21.6,6.7C936,142.2,922.7,131.4,922.7,112.7z"/>
<path d="M994.5,84.9h7.8l0.8,9.4h0.5c5.9-6.1,12.3-10.8,21-10.8c13.2,0,19.3,7.8,19.3,22.5v34.7h-9.5v-33.5
	c0-10.6-3.7-15.5-12.8-15.5c-6.7,0-11.2,3.3-17.6,10v39h-9.5V84.9z"/>
<path d="M1062,113c0-18.7,14.3-29.4,31.2-29.4c7.6-0.1,15,2.8,20.4,8.2l-4.7,6.1c-4.6-3.9-9.4-6.3-15.3-6.3
	c-12.9,0-21.7,8.6-21.7,21.5s8.7,21.3,21.5,21.3c6.9,0,12.7-3.1,17.3-7l4.3,6.2c-6.1,5.5-14,8.6-22.2,8.7
	C1075.2,142.2,1062,131.5,1062,113z"/>
<path d="M1129.7,112.7c0-18.2,13.6-29.2,28.5-29.2c16.1,0,25.5,10.5,25.5,26.2c0,1.9-0.2,3.9-0.5,5.8h-47.3v-7.4h41.6l-2.4,2.6
	c0-13.2-6.6-19.8-16.8-19.8c-10.4,0-19.3,7.8-19.3,21.7c0,14.5,9.4,21.9,21.9,21.9c6.1,0,12-1.9,17-5.3l3.5,6.2
	c-6.4,4.4-13.9,6.7-21.6,6.7C1143,142.2,1129.7,131.4,1129.7,112.7z"/>
<path d="M1213.4,159.3c9.8-4.4,14.6-10.6,14.5-20.1l-2.1-10.6l6.4,9.1c-1.6,1.8-4,2.8-6.4,2.6c-4.9,0-9-2.9-9-8.6s4.3-8.7,9.2-8.7
	c6.8,0,10.3,5.6,10.3,14.7c0,13.5-7.6,22.9-20.2,27.6L1213.4,159.3z"/>
<path d="M1339.8,132.6h18.7V73.5h-18.7v-8.2h47.2v8.2h-18.7v59.1h18.7v8.2h-47.2V132.6z"/>
<path d="M1408.5,84.9h7.8l0.8,9.4h0.5c5.9-6.1,12.3-10.8,21-10.8c13.2,0,19.3,7.8,19.3,22.5v34.7h-9.5v-33.5
	c0-10.6-3.7-15.5-12.8-15.5c-6.7,0-11.2,3.3-17.6,10v39h-9.5L1408.5,84.9L1408.5,84.9z"/>
<path d="M1478.7,85.5l16.2-0.6h32.5v7.7h-48.8L1478.7,85.5L1478.7,85.5z M1494.7,80.2c0-13.6,7.1-22.7,22.5-22.7
	c5.5,0,11,1.1,16.1,3.2l-2.2,7.1c-4.1-1.8-8.5-2.7-13-2.6c-10,0-14,5.6-14,14.6v61h-9.4V80.2z"/>
<path d="M1542.7,113c0-18.7,12.9-29.4,27.6-29.4s27.6,10.7,27.6,29.4c0,18.5-12.9,29.2-27.6,29.2S1542.7,131.5,1542.7,113z
	 M1588.2,113c0-12.9-7.1-21.5-17.8-21.5s-17.8,8.6-17.8,21.5s7.1,21.3,17.8,21.3S1588.2,125.7,1588.2,113z"/>
<path d="M1621.5,84.9h7.9l0.9,13.2h0.2c5.9-9.1,14.6-14.6,25-14.6c3.8-0.1,7.6,0.7,11,2.3l-2.2,8.2c-3.3-1.3-6.8-1.9-10.4-1.8
	c-8.4,0-16.3,4.3-23,16v32.7h-9.5L1621.5,84.9L1621.5,84.9z"/>
<path d="M1680.5,84.9h7.6l0.8,7.4h0.2c2.9-5.2,6.3-8.7,12.8-8.7c5.5,0,9,3.2,10.6,9.7c3.2-6,6.7-9.7,13.1-9.7
	c7.8,0,12.4,6.1,12.4,17.3v40h-9.4v-39.3c0-6.4-1.8-9.8-6-9.8c-3.9,0-6,2.9-9,8.6v40.5h-8.7v-39.3c0-6.4-1.6-9.8-5.8-9.8
	c-3.9,0-6.4,2.9-9.2,8.6v40.5h-9.4V84.9z"/>
<path d="M1752,126.3c0-12.5,11.7-18.6,40.6-20.9c-0.3-7.6-4-14-14.8-14c-7.2,0-14.4,3.5-19.6,6.7l-3.8-6.4c5.8-3.7,15.2-8.1,25-8.1
	c15.3,0,22.8,9.1,22.8,23v34.3h-7.9l-0.8-7.6h-0.3c-6.1,4.8-14.1,9-22,9C1760.7,142.2,1752,136.3,1752,126.3z M1792.6,126.2v-14.5
	c-23.9,1.8-31.2,6.6-31.2,13.9c0,6.3,5.8,8.9,12.2,8.9S1786.2,131.5,1792.6,126.2z"/>
<path d="M1835.5,119.1V92.6h-15.9v-7.1l16.2-0.6l1.3-17.9h7.9v17.9h27.4v7.7H1845v26.6c0,10,3.3,15.2,14.1,15.2
	c4.6,0,9.1-0.8,13.3-2.5l2.1,7c-5.6,2.1-11.5,3.3-17.5,3.3C1840.8,142.2,1835.5,132.9,1835.5,119.1z"/>
<path d="M1917.1,92.6h-25.9v-7.7h35.4v55.9h-9.5V92.6z M1913.3,65.8c0-4.4,3.2-7.4,7.6-7.4s7.6,3,7.6,7.4s-3.2,7.4-7.6,7.4
	S1913.3,70.3,1913.3,65.8z"/>
<path d="M1956.7,113c0-18.7,12.9-29.4,27.6-29.4s27.6,10.7,27.6,29.4c0,18.5-12.9,29.2-27.6,29.2S1956.7,131.5,1956.7,113z
	 M2002.2,113c0-12.9-7.1-21.5-17.8-21.5s-17.8,8.6-17.8,21.5s7.1,21.3,17.8,21.3S2002.2,125.7,2002.2,113z"/>
<path d="M2029.5,84.9h7.8l0.8,9.4h0.5c5.9-6.1,12.3-10.8,21-10.8c13.2,0,19.3,7.8,19.3,22.5v34.7h-9.5v-33.5
	c0-10.6-3.7-15.5-12.8-15.5c-6.7,0-11.2,3.3-17.6,10v39h-9.5L2029.5,84.9L2029.5,84.9z"/>
<path d="M540.2,259.2c0-21.7,32.5-26,32.5-42.2c0-4.4-1.8-8.3-6.9-8.3c-5.3,0-8.4,4.7-8.4,10.9c0,14.1,15.1,32.9,29.1,43.6
	c5.4,4.5,10.6,7.5,15.2,9l-2.6,7.9c-5.6-1.7-11.7-5.2-18.3-10.5c-16.1-12.9-31.6-34.4-31.6-49.8c0-10.1,6.7-17.9,16.6-17.9
	c9.4,0,14.7,6.1,14.7,15c0,18.7-31.1,24.8-31.1,41.7c0,8.4,6.4,13.9,14.5,13.9c5.9,0,11.4-3.7,15.9-8.9c5.8-6.7,9.8-15.3,12.3-25.6
	h8.9c-3,11.3-7.7,21.6-14.5,30.2c-6.1,7-13.6,11.8-23.7,11.8C549.4,280.2,540.2,271.4,540.2,259.2z"/>
<path d="M683.4,203.4H702c22.7,0,35,13.5,35,37.4s-12.3,38.1-34.5,38.1h-19.1V203.4z M701.3,270.9c17.1,0,25.6-11,25.6-30.1
	s-8.5-29.4-25.6-29.4H693V271h8.3V270.9z"/>
<path d="M750.2,250.7c0-18.2,13.6-29.2,28.5-29.2c16.1,0,25.5,10.5,25.5,26.2c0,1.9-0.2,3.9-0.5,5.8h-47.3v-7.4H798l-2.4,2.6
	c0-13.2-6.6-19.8-16.8-19.8c-10.4,0-19.3,7.8-19.3,21.7c0,14.5,9.4,21.9,21.9,21.9c6.1,0,12-1.9,17-5.3l3.5,6.2
	c-6.4,4.4-13.9,6.7-21.6,6.7C763.5,280.2,750.2,269.4,750.2,250.7z"/>
<path d="M820.5,251c0-18.7,14.3-29.4,31.2-29.4c7.6-0.1,15,2.8,20.4,8.2l-4.7,6.1c-4.6-3.9-9.4-6.3-15.3-6.3
	c-12.9,0-21.7,8.6-21.7,21.5c0,12.9,8.7,21.3,21.5,21.3c6.9,0,12.7-3.1,17.3-7l4.3,6.2c-6.1,5.5-14,8.6-22.2,8.7
	C833.7,280.2,820.5,269.5,820.5,251z"/>
<path d="M916.6,230.6h-25.9v-7.7h35.4v55.9h-9.5V230.6z M912.8,203.8c0-4.4,3.2-7.4,7.6-7.4s7.6,3,7.6,7.4s-3.2,7.4-7.6,7.4
	S912.8,208.3,912.8,203.8z"/>
<path d="M957.5,271.4l4.4-6.3c7,5.1,15.6,7.8,24.3,7.6c9.4,0,14-3.9,14-8.6c0-4.3-2.2-7.2-17.4-10.4c-14.6-3-21.9-7.9-21.9-16.3
	c0-9,7.9-15.9,23.2-15.9c8,0.2,15.8,2.6,22.5,7.1l-4.6,6.1c-5.5-3.8-12-5.9-18.7-5.9c-9.4,0-12.9,3.8-12.9,8.1
	c0,4.8,4.8,6.9,16.3,9.3c18.5,4,23,8.6,23,17.2c0,9.1-8.9,16.7-24.8,16.7C975.1,280.1,965.5,277,957.5,271.4z"/>
<path d="M1054.6,230.6h-25.9v-7.7h35.4v55.9h-9.5V230.6z M1050.8,203.8c0-4.4,3.2-7.4,7.6-7.4c4.4,0,7.6,3,7.6,7.4s-3.2,7.4-7.6,7.4
	C1054,211.2,1050.8,208.3,1050.8,203.8z"/>
<path d="M1094.2,251c0-18.7,12.9-29.4,27.6-29.4s27.6,10.7,27.6,29.4c0,18.5-12.9,29.2-27.6,29.2S1094.2,269.5,1094.2,251z
	 M1139.7,251c0-12.9-7.1-21.5-17.8-21.5s-17.8,8.6-17.8,21.5c0,12.9,7.1,21.3,17.8,21.3S1139.7,263.7,1139.7,251z"/>
<path d="M1167,222.9h7.8l0.8,9.4h0.5c5.9-6.1,12.3-10.8,21-10.8c13.2,0,19.3,7.8,19.3,22.5v34.7h-9.5v-33.5
	c0-10.6-3.7-15.5-12.8-15.5c-6.7,0-11.2,3.3-17.6,10v39h-9.5L1167,222.9L1167,222.9z"/>
<path d="M1302,269l5.8-6.7c5.9,5.8,13.8,9.2,22.1,9.3c10.4,0,16.3-4.9,16.3-11.8c0-8.1-5.9-10.4-13.5-13.6l-10.9-4.8
	c-7.5-3-16.2-8.3-16.2-19.4c0-11.5,10.4-20,24.7-20c8.7-0.1,17,3.3,23.2,9.3l-5.1,6.2c-5-4.7-11.7-7.2-18.5-7
	c-8.7,0-14.6,4.1-14.6,10.9c0,7.2,7,9.9,13.5,12.4l10.6,4.7c9.3,3.7,16.7,9,16.7,20.1c0,12-10.1,21.5-26.7,21.5
	C1319.1,280.3,1309.2,276.2,1302,269z"/>
<path d="M1371,301.7l2-7.6c1.6,0.5,3.4,0.8,5.1,0.8c7.8,0,12.5-4.9,15.3-11.8l1.6-4.1l-26-56h9.7l13.6,30.8
	c2.2,4.9,4.6,10.8,6.9,16.2h0.5c2-5.3,4.1-11.2,6-16.2l12.1-30.8h9.2l-24.7,60.5c-4.1,11-10.9,19.4-23.7,19.4
	C1376,302.9,1373.4,302.5,1371,301.7z"/>
<path d="M1440.5,271.4l4.4-6.3c7,5.1,15.6,7.8,24.3,7.6c9.4,0,14-3.9,14-8.6c0-4.3-2.2-7.2-17.4-10.4c-14.6-3-21.9-7.9-21.9-16.3
	c0-9,7.9-15.9,23.2-15.9c8,0.2,15.8,2.6,22.5,7.1l-4.6,6.1c-5.5-3.8-12-5.9-18.7-5.9c-9.4,0-12.9,3.8-12.9,8.1
	c0,4.8,4.8,6.9,16.3,9.3c18.5,4,23,8.6,23,17.2c0,9.1-8.9,16.7-24.8,16.7C1458.1,280.1,1448.5,277,1440.5,271.4z"/>
<path d="M1525,257.1v-26.5h-15.9v-7.1l16.2-0.6l1.3-17.9h7.9v17.9h27.4v7.7h-27.3v26.6c0,10,3.3,15.2,14.1,15.2
	c4.6,0,9.1-0.8,13.3-2.5l2.1,7c-5.6,2.1-11.5,3.3-17.5,3.3C1530.3,280.2,1525,270.9,1525,257.1z"/>
<path d="M1578.2,250.7c0-18.2,13.6-29.2,28.5-29.2c16.1,0,25.5,10.5,25.5,26.2c0,1.9-0.2,3.9-0.5,5.8h-47.3v-7.4h41.6l-2.4,2.6
	c0-13.2-6.6-19.8-16.8-19.8c-10.4,0-19.3,7.8-19.3,21.7c0,14.5,9.4,21.9,21.9,21.9c6.1,0,12-1.9,17-5.3l3.5,6.2
	c-6.4,4.4-13.9,6.7-21.6,6.7C1591.5,280.2,1578.2,269.4,1578.2,250.7z"/>
<path d="M1646,222.9h7.6l0.8,7.4h0.2c2.9-5.2,6.3-8.7,12.8-8.7c5.5,0,9,3.2,10.6,9.7c3.2-6,6.7-9.7,13.1-9.7
	c7.8,0,12.4,6.1,12.4,17.3v40h-9.4v-39.3c0-6.4-1.8-9.8-6-9.8c-3.9,0-6,2.9-9,8.6v40.5h-8.7v-39.3c0-6.4-1.6-9.8-5.8-9.8
	c-3.9,0-6.4,2.9-9.2,8.6v40.5h-9.4V222.9z"/>
<path d="M1716.5,271.4l4.4-6.3c7,5.1,15.6,7.8,24.3,7.6c9.4,0,14-3.9,14-8.6c0-4.3-2.2-7.2-17.4-10.4c-14.6-3-21.9-7.9-21.9-16.3
	c0-9,7.9-15.9,23.2-15.9c8,0.2,15.8,2.6,22.5,7.1l-4.6,6.1c-5.5-3.8-12-5.9-18.7-5.9c-9.4,0-12.9,3.8-12.9,8.1
	c0,4.8,4.8,6.9,16.3,9.3c18.5,4,23,8.6,23,17.2c0,9.1-8.9,16.7-24.8,16.7C1734.1,280.1,1724.5,277,1716.5,271.4z"/>
<path d="M1852.4,241.1c0-24.4,13.9-39.1,33.5-39.1c7.9-0.1,15.5,3.3,20.8,9.2l-5.5,6.1c-3.6-3.8-8-6.8-15.3-6.8
	c-14.1,0-23.3,11.6-23.3,30.4c0,19,8.4,30.8,23.1,30.8c5.3,0,10.2-1.6,13-4.4v-19.7h-15v-7.9h23.9v31.7c-4.7,4.8-12.8,8.7-22.5,8.7
	C1866.1,280.2,1852.4,265.7,1852.4,241.1z"/>
<path d="M1932,222.9h7.9l0.9,13.2h0.2c5.9-9.1,14.6-14.6,25-14.6c3.8-0.1,7.6,0.7,11,2.3l-2.2,8.2c-3.3-1.3-6.8-1.9-10.4-1.8
	c-8.4,0-16.3,4.3-23,16v32.7h-9.5L1932,222.9L1932,222.9z"/>
<path d="M1991.2,251c0-18.7,12.9-29.4,27.6-29.4s27.6,10.7,27.6,29.4c0,18.5-12.9,29.2-27.6,29.2S1991.2,269.5,1991.2,251z
	 M2036.7,251c0-12.9-7.1-21.5-17.8-21.5s-17.8,8.6-17.8,21.5c0,12.9,7.1,21.3,17.8,21.3S2036.7,263.7,2036.7,251z"/>
<path d="M2062.2,257.6v-34.7h9.5v33.5c0,10.5,3.7,15.5,12.9,15.5c6.4,0,11.2-3,17.4-10.2v-38.8h9.5v55.9h-7.9l-0.8-9.8h-0.5
	c-5.6,6.6-12.2,11.2-20.8,11.2C2068.3,280.2,2062.2,272.4,2062.2,257.6z"/>
<path d="M2133,222.9h7.8l0.8,7.1h0.3c5.2-4.9,12.5-8.5,19.3-8.5c15.1,0,23.1,11.2,23.1,28.5c0,19-12,30.1-25.4,30.1
	c-5.2,0-11.6-2.6-16.7-7.2h-0.2l0.5,10.6v18.9h-9.5L2133,222.9L2133,222.9z M2174.6,250c0-12.3-4.6-20.5-15.8-20.5
	c-4.9,0-10.7,2.5-16.3,8.3v27.8c5.2,4.7,11,6.4,14.8,6.4C2167.3,272.1,2174.6,263.8,2174.6,250z"/>
<g>
	<path class="st0" d="M93,149.4c1.9,6,4.6,11.8,7.9,17.3l-9.6,11.1c-3.1,3.6-2.8,8.8,0.7,12.1l16.5,15.1c3.6,3.3,9.2,3.6,13.1,0.7
		l12-8.7c6.2,3.3,12.7,5.8,19.6,7.6l1.8,14.2c0.6,4.6,4.8,8,9.8,8h23.3c5,0,9.2-3.4,9.8-8l1.7-13.7c7.3-1.8,14.4-4.4,21-7.8
		l11.6,8.4c3.9,2.9,9.6,2.5,13.1-0.7l16.5-15.1c3.6-3.3,3.9-8.4,0.7-12.1l-9-10.5c3.7-6,6.7-12.3,8.6-19l13.9-1.5
		c5-0.5,8.7-4.4,8.7-9v-21.4c0-4.6-3.7-8.5-8.7-9l-13.7-1.5c-1.9-6.6-4.7-12.9-8.3-18.7l8.4-9.8c3.1-3.6,2.8-8.8-0.7-12.1
		l-16.4-15.1c-3.6-3.3-9.2-3.6-13.1-0.7l-10.3,7.5c-6.7-3.6-13.9-6.4-21.4-8.3l-1.6-12.3c-0.6-4.6-4.8-8-9.8-8h-23.3
		c-5,0-9.2,3.4-9.8,8l-1.6,12.3c-7.7,1.9-15.1,4.8-22,8.5l-10.7-7.8c-3.9-2.9-9.6-2.5-13.1,0.7L92.1,65.4c-3.6,3.3-3.9,8.4-0.7,12.1
		l9,10.4c-3.6,6-6.3,12.3-8.1,18.9l-14.4,1.5c-5,0.5-8.7,4.4-8.7,9v21.4c0,4.6,3.7,8.5,8.7,9L93,149.4z M177.4,91.4
		c21.2,0,38.5,15.9,38.5,35.4s-17.3,35.4-38.5,35.4c-21.2,0-38.5-15.9-38.5-35.4S156.1,91.4,177.4,91.4z"/>
	<path class="st1" d="M407.7,154.7l-12.3-9.5c-3.8-2.9-9.4-2.8-13,0.3l-6.8,5.9c-5.7-2.5-11.8-4.3-18.1-5.4l-1.9-8.6
		c-1-4.5-5.5-7.5-10.4-7.2l-16,1.3c-4.9,0.4-8.8,4.1-8.9,8.7l-0.3,8.8c-6.2,2-12,4.8-17.3,8.4l-8.1-5c-4.1-2.5-9.6-1.8-12.8,1.7
		l-10.4,11.4c-3.2,3.5-3,8.6,0.4,11.9l7.1,7c-2.5,5.1-4.2,10.4-5.2,15.9l-10.1,1.9c-4.8,0.9-8.2,5-7.8,9.5l1.4,14.8
		c0.4,4.5,4.4,8.1,9.4,8.2l11,0.3c2,4.8,4.6,9.4,7.8,13.6L279,257c-2.7,3.8-2,8.9,1.8,11.8l12.3,9.5c3.8,2.9,9.4,2.8,13-0.3l8-6.9
		c5.3,2.3,10.8,3.9,16.5,5l2.2,10.1c1,4.5,5.5,7.5,10.4,7.2l16-1.3c4.9-0.4,8.8-4.1,8.9-8.7l0.4-9.9c5.9-1.9,11.4-4.5,16.5-7.7
		l8.9,5.4c4.1,2.5,9.6,1.8,12.8-1.7l10.4-11.3c3.2-3.5,3-8.6-0.4-11.9l-7.1-7c2.6-5.1,4.5-10.5,5.6-16l9.8-1.8
		c4.8-0.9,8.2-5,7.8-9.5l-1.4-14.8c-0.4-4.5-4.4-8.1-9.4-8.2l-9.8-0.3c-2-5.2-4.8-10.2-8.2-14.8l5.3-7.4
		C412.2,162.7,411.5,157.6,407.7,154.7z M347.2,240c-17.3,1.4-32.6-10.5-34.1-26.5c-1.5-15.9,11.4-30,28.8-31.3
		c17.3-1.4,32.6,10.5,34.1,26.5C377.5,224.6,364.6,238.6,347.2,240z"/>
	<path class="st2" d="M149.1,279.7c-4.9,0.5-8.7,4.3-8.7,8.8l-0.1,9.1c-0.1,4.6,3.6,8.4,8.5,9l7.3,0.9c1.2,4.1,2.9,7.9,5.2,11.6
		l-4.7,5.3c-3.1,3.6-2.9,8.7,0.6,11.9l6.9,6.5c3.5,3.3,9,3.6,13,0.8l5.8-4.1c4.1,2.2,8.4,4,13,5.2l0.8,6.9c0.5,4.5,4.6,8,9.6,8
		l9.9,0.1c5,0.1,9.2-3.3,9.8-7.8l0.9-6.5c4.9-1.1,9.6-2.8,14-5l5.5,4.1c3.9,2.9,9.4,2.7,13-0.5l7.1-6.4c3.6-3.2,3.9-8.3,0.9-11.9
		l-4.2-5c2.6-3.9,4.6-8.1,5.9-12.6l6.5-0.6c4.9-0.5,8.7-4.3,8.7-8.8l0.1-9.1c0.1-4.6-3.6-8.4-8.5-9l-6.3-0.8
		c-1.2-4.4-3-8.6-5.3-12.6l3.9-4.5c3.1-3.6,2.9-8.7-0.6-11.9l-6.9-6.5c-3.5-3.3-9-3.6-13-0.8l-4.7,3.3c-4.4-2.5-9.2-4.4-14.2-5.7
		l-0.6-5.6c-0.5-4.5-4.6-8-9.6-8l-9.9-0.1c-5-0.1-9.2,3.3-9.8,7.8l-0.8,5.6c-5.2,1.2-10.1,3.1-14.7,5.5l-4.9-3.7
		c-3.9-2.9-9.4-2.7-13,0.5l-7.1,6.4c-3.6,3.2-3.9,8.3-0.9,11.9l4.2,5c-2.4,3.9-4.3,8.1-5.6,12.6L149.1,279.7z M212.8,269.4
		c14.2,0.1,25.5,10.9,25.4,23.9c-0.2,13-11.8,23.5-26,23.3c-14.2-0.1-25.5-10.9-25.4-23.9C187,279.7,198.6,269.3,212.8,269.4z"/>
</g>
<path d="M314.9,31h-4.7c-4.6,0-8.3,3.4-8.3,7.7v17.5c0,4.2,3.7,7.7,8.3,7.7h4.7c4.6,0,8.3-3.4,8.3-7.7V38.7
	C323.2,34.4,319.4,31,314.9,31z M316.1,56.2c0,0.6-0.5,1.1-1.2,1.1h-4.7c-0.7,0-1.2-0.5-1.2-1.1V38.7c0-0.6,0.5-1.1,1.2-1.1h4.7
	c0.7,0,1.2,0.5,1.2,1.1V56.2z"/>
<path d="M352.8,57.3h-3.6v-23c0-1.8-1.6-3.3-3.6-3.3h-7.1c-2,0-3.6,1.5-3.6,3.3c0,1.8,1.6,3.3,3.6,3.3h3.6v19.7h-3.6
	c-2,0-3.6,1.5-3.6,3.3c0,1.8,1.6,3.3,3.6,3.3h14.2c2,0,3.6-1.5,3.6-3.3C356.4,58.7,354.8,57.3,352.8,57.3z"/>
<path d="M414.5,31h-4.7c-4.6,0-8.3,3.4-8.3,7.7v17.5c0,4.2,3.7,7.7,8.3,7.7h4.7c4.6,0,8.3-3.4,8.3-7.7V38.7
	C422.8,34.4,419.1,31,414.5,31z M415.7,56.2c0,0.6-0.5,1.1-1.2,1.1h-4.7c-0.7,0-1.2-0.5-1.2-1.1V38.7c0-0.6,0.5-1.1,1.2-1.1h4.7
	c0.7,0,1.2,0.5,1.2,1.1V56.2z"/>
<path class="st3" d="M386,57.3h-3.6v-23c0-1.8-1.6-3.3-3.6-3.3h-7.1c-2,0-3.6,1.5-3.6,3.3c0,1.8,1.6,3.3,3.6,3.3h3.6v19.7h-3.6
	c-2,0-3.6,1.5-3.6,3.3c0,1.8,1.6,3.3,3.6,3.3H386c2,0,3.6-1.5,3.6-3.3C389.6,58.7,388,57.3,386,57.3z"/>
<path d="M289.7,57.3h-3.6v-23c0-1.8-1.6-3.3-3.6-3.3h-7.1c-2,0-3.6,1.5-3.6,3.3c0,1.8,1.6,3.3,3.6,3.3h3.6v19.7h-3.6
	c-2,0-3.6,1.5-3.6,3.3c0,1.8,1.6,3.3,3.6,3.3h14.2c2,0,3.6-1.5,3.6-3.3C293.2,58.7,291.6,57.3,289.7,57.3z"/>
<path d="M94.8,337.4h-2.4c-2.3,0-4.2,2-4.2,4.5v10.3c0,2.5,1.9,4.5,4.2,4.5h2.4c2.3,0,4.2-2,4.2-4.5v-10.3
	C99,339.4,97.1,337.4,94.8,337.4z M95.4,352.2c0,0.4-0.3,0.6-0.6,0.6h-2.4c-0.3,0-0.6-0.3-0.6-0.6v-10.3c0-0.4,0.3-0.6,0.6-0.6h2.4
	c0.3,0,0.6,0.3,0.6,0.6V352.2z"/>
<path d="M113.8,352.8h-1.8v-13.5c0-1.1-0.8-1.9-1.8-1.9h-3.6c-1,0-1.8,0.9-1.8,1.9s0.8,1.9,1.8,1.9h1.8v11.6h-1.8
	c-1,0-1.8,0.9-1.8,1.9s0.8,1.9,1.8,1.9h7.1c1,0,1.8-0.9,1.8-1.9S114.8,352.8,113.8,352.8z"/>
<path d="M144.7,337.4h-2.4c-2.3,0-4.2,2-4.2,4.5v10.3c0,2.5,1.9,4.5,4.2,4.5h2.4c2.3,0,4.2-2,4.2-4.5v-10.3
	C148.8,339.4,147,337.4,144.7,337.4z M145.3,352.2c0,0.4-0.3,0.6-0.6,0.6h-2.4c-0.3,0-0.6-0.3-0.6-0.6v-10.3c0-0.4,0.3-0.6,0.6-0.6
	h2.4c0.3,0,0.6,0.3,0.6,0.6V352.2z"/>
<path class="st4" d="M130.4,352.8h-1.8v-13.5c0-1.1-0.8-1.9-1.8-1.9h-3.6c-1,0-1.8,0.9-1.8,1.9s0.8,1.9,1.8,1.9h1.8v11.6h-1.8
	c-1,0-1.8,0.9-1.8,1.9s0.8,1.9,1.8,1.9h7.1c1,0,1.8-0.9,1.8-1.9S131.4,352.8,130.4,352.8z"/>
<path d="M82.2,352.8h-1.8v-13.5c0-1.1-0.8-1.9-1.8-1.9h-3.6c-1,0-1.8,0.9-1.8,1.9s0.8,1.9,1.8,1.9h1.8v11.6h-1.8
	c-1,0-1.8,0.9-1.8,1.9s0.8,1.9,1.8,1.9h7.1c1,0,1.8-0.9,1.8-1.9S83.2,352.8,82.2,352.8z"/>
<g>
	<path class="st5" d="M344.2,193.3c-10.5,0-19,8-19,17.8c0,9.8,8.5,17.8,19,17.8c10.5,0,19-8,19-17.8S354.7,193.3,344.2,193.3z
		 M348.2,220.8c-1,0.4-1.8,0.6-2.3,0.8c-0.6,0.2-1.3,0.3-2,0.3c-1.2,0-2.1-0.3-2.8-0.8s-1-1.2-1-2.1c0-0.3,0-0.7,0.1-1
		c0-0.3,0.1-0.7,0.2-1.1l1.2-4c0.1-0.4,0.2-0.8,0.3-1.1c0.1-0.3,0.1-0.7,0.1-1c0-0.5-0.1-0.9-0.3-1.1c-0.2-0.2-0.7-0.3-1.3-0.3
		c-0.3,0-0.6,0-1,0.1c-0.3,0.1-0.6,0.2-0.9,0.3l0.3-1.2c0.8-0.3,1.6-0.6,2.3-0.8c0.7-0.2,1.4-0.3,2.1-0.3c1.2,0,2.1,0.3,2.7,0.8
		c0.6,0.5,1,1.2,1,2.1c0,0.2,0,0.5-0.1,0.9c0,0.4-0.1,0.8-0.2,1.2l-1.2,4c-0.1,0.3-0.2,0.7-0.3,1.1c-0.1,0.4-0.1,0.7-0.1,0.9
		c0,0.5,0.1,0.9,0.4,1.1c0.3,0.2,0.7,0.3,1.3,0.3c0.3,0,0.6,0,1-0.1c0.4-0.1,0.6-0.2,0.8-0.3L348.2,220.8z M347.9,204.5
		c-0.6,0.5-1.3,0.7-2.1,0.7c-0.8,0-1.5-0.2-2.1-0.7c-0.6-0.5-0.9-1.1-0.9-1.8c0-0.7,0.3-1.3,0.9-1.8c0.6-0.5,1.3-0.7,2.1-0.7
		c0.8,0,1.5,0.2,2.1,0.7c0.6,0.5,0.9,1.1,0.9,1.8C348.8,203.4,348.5,204,347.9,204.5z"/>
</g>
<g>
	<path class="st5" d="M212.5,275.8c-10.5,0-19,8-19,17.8s8.5,17.8,19,17.8c10.5,0,19-8,19-17.8S223,275.8,212.5,275.8z M216.4,303.3
		c-1,0.4-1.8,0.6-2.3,0.8c-0.6,0.2-1.3,0.3-2,0.3c-1.2,0-2.1-0.3-2.8-0.8c-0.7-0.5-1-1.2-1-2.1c0-0.3,0-0.7,0.1-1
		c0-0.3,0.1-0.7,0.2-1.1l1.2-4c0.1-0.4,0.2-0.8,0.3-1.1c0.1-0.3,0.1-0.7,0.1-1c0-0.5-0.1-0.9-0.3-1.1c-0.2-0.2-0.7-0.3-1.3-0.3
		c-0.3,0-0.6,0-1,0.1c-0.3,0.1-0.6,0.2-0.9,0.3l0.3-1.2c0.8-0.3,1.6-0.6,2.3-0.8c0.7-0.2,1.4-0.3,2.1-0.3c1.2,0,2.1,0.3,2.7,0.8
		c0.6,0.5,1,1.2,1,2.1c0,0.2,0,0.5-0.1,0.9c0,0.4-0.1,0.8-0.2,1.2l-1.2,4c-0.1,0.3-0.2,0.7-0.3,1.1c-0.1,0.4-0.1,0.7-0.1,0.9
		c0,0.5,0.1,0.9,0.4,1.1c0.3,0.2,0.7,0.3,1.3,0.3c0.3,0,0.6,0,1-0.1c0.4-0.1,0.6-0.2,0.8-0.3L216.4,303.3z M216.2,286.9
		c-0.6,0.5-1.3,0.7-2.1,0.7c-0.8,0-1.5-0.2-2.1-0.7c-0.6-0.5-0.9-1.1-0.9-1.8c0-0.7,0.3-1.3,0.9-1.8c0.6-0.5,1.3-0.7,2.1-0.7
		c0.8,0,1.5,0.2,2.1,0.7c0.6,0.5,0.9,1.1,0.9,1.8C217.1,285.9,216.8,286.5,216.2,286.9z"/>
</g>
<text transform="matrix(1.087 0 0 1 163.4152 138.5082)" class="st6 st7">d</text>
<image style="overflow:visible;" width="180" height="180" xlink:href="../../../../Downloads/lily-logo.jpeg"  transform="matrix(0.1775 0 0 0.1385 399.7029 335.0961)">
</image>
<text transform="matrix(1.087 0 0 1 266.3317 344.807)"><tspan x="0" y="0" class="st6 st8">Inference, Information, </tspan><tspan x="0" y="10.3" class="st6 st8">&amp; Decision System Group</tspan></text>
<image style="overflow:visible;" width="512" height="502" xlink:href="../../../../Downloads/unnamed.png"  transform="matrix(0.7523 0 0 0.6717 2260.1829 26.5578)">
</image>
</svg>
