<?xml version="1.0" encoding="utf-8"?>
<!-- Generator: Adobe Illustrator 23.0.1, SVG Export Plug-In . SVG Version: 6.00 Build 0)  -->
<svg version="1.1" id="Capa_1" xmlns="http://www.w3.org/2000/svg" xmlns:xlink="http://www.w3.org/1999/xlink" x="0px" y="0px"
	 viewBox="0 0 2527.3 389.6" style="enable-background:new 0 0 2527.3 389.6;" xml:space="preserve">
<style type="text/css">
	.st0{fill:#1B3764;}
	.st1{fill:#DD1F26;}
	.st2{fill:#FFC223;}
	.st3{fill:#D91F26;}
	.st4{fill:#050406;}
	.st5{font-family:'Courier';}
	.st6{font-size:31.8062px;}
	.st7{font-size:14.185px;}
</style>
<title>iid-logo</title>
<path d="M442.2,132.6h18.7V73.5h-18.7v-8.2h47.2v8.2h-18.7v59.1h18.7v8.2h-47.2V132.6z"/>
<path d="M510.9,84.9h7.8l0.8,9.4h0.5c5.9-6.1,12.3-10.8,21-10.8c13.2,0,19.3,7.8,19.3,22.5v34.7h-9.5v-33.5
	c0-10.6-3.7-15.5-12.8-15.5c-6.7,0-11.2,3.3-17.6,10v39h-9.5V84.9z"/>
<path d="M581.1,85.5l16.2-0.6h32.5v7.7H581L581.1,85.5L581.1,85.5z M597.1,80.2c0-13.6,7.1-22.7,22.5-22.7c5.5,0,11,1.1,16.1,3.2
	l-2.2,7.1c-4.1-1.8-8.5-2.7-13-2.6c-10,0-14,5.6-14,14.6v61h-9.4L597.1,80.2L597.1,80.2z"/>
<path d="M646.1,112.7c0-18.2,13.6-29.2,28.5-29.2c16.1,0,25.5,10.5,25.5,26.2c0,1.9-0.2,3.9-0.5,5.8h-47.3v-7.4H694l-2.4,2.6
	c0-13.2-6.6-19.8-16.8-19.8c-10.4,0-19.3,7.8-19.3,21.7c0,14.5,9.4,21.9,21.9,21.9c6.1,0,12-1.9,17-5.3l3.5,6.2
	c-6.4,4.4-13.9,6.7-21.6,6.7C659.4,142.2,646.1,131.4,646.1,112.7z"/>
<path d="M723.9,84.9h7.9l0.9,13.2h0.2c5.9-9.1,14.6-14.6,25-14.6c3.8-0.1,7.6,0.7,11,2.3l-2.2,8.2c-3.3-1.3-6.8-1.9-10.4-1.8
	c-8.4,0-16.3,4.3-23,16v32.7h-9.5v-56L723.9,84.9z"/>
<path d="M784.1,112.7c0-18.2,13.6-29.2,28.5-29.2c16.1,0,25.5,10.5,25.5,26.2c0,1.9-0.2,3.9-0.5,5.8h-47.3v-7.4H832l-2.4,2.6
	c0-13.2-6.6-19.8-16.8-19.8c-10.4,0-19.3,7.8-19.3,21.7c0,14.5,9.4,21.9,21.9,21.9c6.1,0,12-1.9,17-5.3l3.5,6.2
	c-6.4,4.4-13.9,6.7-21.6,6.7C797.4,142.2,784.1,131.4,784.1,112.7z"/>
<path d="M855.9,84.9h7.8l0.8,9.4h0.5c5.9-6.1,12.3-10.8,21-10.8c13.2,0,19.3,7.8,19.3,22.5v34.7h-9.5v-33.5
	c0-10.6-3.7-15.5-12.8-15.5c-6.7,0-11.2,3.3-17.6,10v39h-9.5V84.9z"/>
<path d="M923.4,113c0-18.7,14.3-29.4,31.2-29.4c7.6-0.1,15,2.8,20.4,8.2l-4.7,6.1c-4.6-3.9-9.4-6.3-15.3-6.3
	c-12.9,0-21.7,8.6-21.7,21.5s8.7,21.3,21.5,21.3c6.9,0,12.7-3.1,17.3-7l4.3,6.2c-6.1,5.5-14,8.6-22.2,8.7
	C936.6,142.2,923.4,131.5,923.4,113z"/>
<path d="M991.1,112.7c0-18.2,13.6-29.2,28.5-29.2c16.1,0,25.5,10.5,25.5,26.2c0,1.9-0.2,3.9-0.5,5.8h-47.3v-7.4h41.6l-2.4,2.6
	c0-13.2-6.6-19.8-16.8-19.8c-10.4,0-19.3,7.8-19.3,21.7c0,14.5,9.4,21.9,21.9,21.9c6.1,0,12-1.9,17-5.3l3.5,6.2
	c-6.4,4.4-13.9,6.7-21.6,6.7C1004.4,142.2,991.1,131.4,991.1,112.7z"/>
<path d="M1074.8,159.3c9.8-4.4,14.6-10.6,14.5-20.1l-2.1-10.6l6.4,9.1c-1.6,1.8-4,2.8-6.4,2.6c-4.9,0-9-2.9-9-8.6s4.3-8.7,9.2-8.7
	c6.8,0,10.3,5.6,10.3,14.7c0,13.5-7.6,22.9-20.2,27.6L1074.8,159.3z"/>
<path d="M1201.2,132.6h18.7V73.5h-18.7v-8.2h47.2v8.2h-18.7v59.1h18.7v8.2h-47.2V132.6z"/>
<path d="M1269.9,84.9h7.8l0.8,9.4h0.5c5.9-6.1,12.3-10.8,21-10.8c13.2,0,19.3,7.8,19.3,22.5v34.7h-9.5v-33.5
	c0-10.6-3.7-15.5-12.8-15.5c-6.7,0-11.2,3.3-17.6,10v39h-9.5L1269.9,84.9L1269.9,84.9z"/>
<path d="M1340.1,85.5l16.2-0.6h32.5v7.7H1340L1340.1,85.5L1340.1,85.5z M1356.1,80.2c0-13.6,7.1-22.7,22.5-22.7
	c5.5,0,11,1.1,16.1,3.2l-2.2,7.1c-4.1-1.8-8.5-2.7-13-2.6c-10,0-14,5.6-14,14.6v61h-9.4V80.2z"/>
<path d="M1404.1,113c0-18.7,12.9-29.4,27.6-29.4s27.6,10.7,27.6,29.4c0,18.5-12.9,29.2-27.6,29.2S1404.1,131.5,1404.1,113z
	 M1449.6,113c0-12.9-7.1-21.5-17.8-21.5s-17.8,8.6-17.8,21.5s7.1,21.3,17.8,21.3S1449.6,125.7,1449.6,113z"/>
<path d="M1482.9,84.9h7.9l0.9,13.2h0.2c5.9-9.1,14.6-14.6,25-14.6c3.8-0.1,7.6,0.7,11,2.3l-2.2,8.2c-3.3-1.3-6.8-1.9-10.4-1.8
	c-8.4,0-16.3,4.3-23,16v32.7h-9.5L1482.9,84.9L1482.9,84.9z"/>
<path d="M1541.9,84.9h7.6l0.8,7.4h0.2c2.9-5.2,6.3-8.7,12.8-8.7c5.5,0,9,3.2,10.6,9.7c3.2-6,6.7-9.7,13.1-9.7
	c7.8,0,12.4,6.1,12.4,17.3v40h-9.4v-39.3c0-6.4-1.8-9.8-6-9.8c-3.9,0-6,2.9-9,8.6v40.5h-8.7v-39.3c0-6.4-1.6-9.8-5.8-9.8
	c-3.9,0-6.4,2.9-9.2,8.6v40.5h-9.4V84.9z"/>
<path d="M1613.4,126.3c0-12.5,11.7-18.6,40.6-20.9c-0.3-7.6-4-14-14.8-14c-7.2,0-14.4,3.5-19.6,6.7l-3.8-6.4
	c5.8-3.7,15.2-8.1,25-8.1c15.3,0,22.8,9.1,22.8,23v34.3h-7.9l-0.8-7.6h-0.3c-6.1,4.8-14.1,9-22,9
	C1622.1,142.2,1613.4,136.3,1613.4,126.3z M1654,126.2v-14.5c-23.9,1.8-31.2,6.6-31.2,13.9c0,6.3,5.8,8.9,12.2,8.9
	S1647.6,131.5,1654,126.2z"/>
<path d="M1696.9,119.1V92.6H1681v-7.1l16.2-0.6l1.3-17.9h7.9v17.9h27.4v7.7h-27.4v26.6c0,10,3.3,15.2,14.1,15.2
	c4.6,0,9.1-0.8,13.3-2.5l2.1,7c-5.6,2.1-11.5,3.3-17.5,3.3C1702.2,142.2,1696.9,132.9,1696.9,119.1z"/>
<path d="M1778.5,92.6h-25.9v-7.7h35.4v55.9h-9.5V92.6z M1774.7,65.8c0-4.4,3.2-7.4,7.6-7.4s7.6,3,7.6,7.4s-3.2,7.4-7.6,7.4
	S1774.7,70.3,1774.7,65.8z"/>
<path d="M1818.1,113c0-18.7,12.9-29.4,27.6-29.4s27.6,10.7,27.6,29.4c0,18.5-12.9,29.2-27.6,29.2S1818.1,131.5,1818.1,113z
	 M1863.6,113c0-12.9-7.1-21.5-17.8-21.5s-17.8,8.6-17.8,21.5s7.1,21.3,17.8,21.3S1863.6,125.7,1863.6,113z"/>
<path d="M1890.9,84.9h7.8l0.8,9.4h0.5c5.9-6.1,12.3-10.8,21-10.8c13.2,0,19.3,7.8,19.3,22.5v34.7h-9.5v-33.5
	c0-10.6-3.7-15.5-12.8-15.5c-6.7,0-11.2,3.3-17.6,10v39h-9.5L1890.9,84.9L1890.9,84.9z"/>
<path d="M401.6,259.2c0-21.7,32.5-26,32.5-42.2c0-4.4-1.8-8.3-6.9-8.3c-5.3,0-8.4,4.7-8.4,10.9c0,14.1,15.1,32.9,29.1,43.6
	c5.4,4.5,10.6,7.5,15.2,9l-2.6,7.9c-5.6-1.7-11.7-5.2-18.3-10.5c-16.1-12.9-31.6-34.4-31.6-49.8c0-10.1,6.7-17.9,16.6-17.9
	c9.4,0,14.7,6.1,14.7,15c0,18.7-31.1,24.8-31.1,41.7c0,8.4,6.4,13.9,14.5,13.9c5.9,0,11.4-3.7,15.9-8.9c5.8-6.7,9.8-15.3,12.3-25.6
	h8.9c-3,11.3-7.7,21.6-14.5,30.2c-6.1,7-13.6,11.8-23.7,11.8C410.8,280.2,401.6,271.4,401.6,259.2z"/>
<path d="M544.8,203.4h18.6c22.7,0,35,13.5,35,37.4s-12.3,38.1-34.5,38.1h-19.1V203.4z M562.7,270.9c17.1,0,25.6-11,25.6-30.1
	s-8.5-29.4-25.6-29.4h-8.3V271h8.3V270.9z"/>
<path d="M611.6,250.7c0-18.2,13.6-29.2,28.5-29.2c16.1,0,25.5,10.5,25.5,26.2c0,1.9-0.2,3.9-0.5,5.8h-47.3v-7.4h41.6l-2.4,2.6
	c0-13.2-6.6-19.8-16.8-19.8c-10.4,0-19.3,7.8-19.3,21.7c0,14.5,9.4,21.9,21.9,21.9c6.1,0,12-1.9,17-5.3l3.5,6.2
	c-6.4,4.4-13.9,6.7-21.6,6.7C624.9,280.2,611.6,269.4,611.6,250.7z"/>
<path d="M681.9,251c0-18.7,14.3-29.4,31.2-29.4c7.6-0.1,15,2.8,20.4,8.2l-4.7,6.1c-4.6-3.9-9.4-6.3-15.3-6.3
	c-12.9,0-21.7,8.6-21.7,21.5c0,12.9,8.7,21.3,21.5,21.3c6.9,0,12.7-3.1,17.3-7l4.3,6.2c-6.1,5.5-14,8.6-22.2,8.7
	C695.1,280.2,681.9,269.5,681.9,251z"/>
<path d="M778,230.6h-25.9v-7.7h35.4v55.9H778V230.6z M774.2,203.8c0-4.4,3.2-7.4,7.6-7.4s7.6,3,7.6,7.4s-3.2,7.4-7.6,7.4
	S774.2,208.3,774.2,203.8z"/>
<path d="M818.9,271.4l4.4-6.3c7,5.1,15.6,7.8,24.3,7.6c9.4,0,14-3.9,14-8.6c0-4.3-2.2-7.2-17.4-10.4c-14.6-3-21.9-7.9-21.9-16.3
	c0-9,7.9-15.9,23.2-15.9c8,0.2,15.8,2.6,22.5,7.1l-4.6,6.1c-5.5-3.8-12-5.9-18.7-5.9c-9.4,0-12.9,3.8-12.9,8.1
	c0,4.8,4.8,6.9,16.3,9.3c18.5,4,23,8.6,23,17.2c0,9.1-8.9,16.7-24.8,16.7C836.4,280.1,826.9,277,818.9,271.4z"/>
<path d="M916,230.6h-25.9v-7.7h35.4v55.9H916V230.6z M912.2,203.8c0-4.4,3.2-7.4,7.6-7.4s7.6,3,7.6,7.4s-3.2,7.4-7.6,7.4
	S912.2,208.3,912.2,203.8z"/>
<path d="M955.6,251c0-18.7,12.9-29.4,27.6-29.4s27.6,10.7,27.6,29.4c0,18.5-12.9,29.2-27.6,29.2S955.6,269.5,955.6,251z M1001.1,251
	c0-12.9-7.1-21.5-17.8-21.5s-17.8,8.6-17.8,21.5c0,12.9,7.1,21.3,17.8,21.3S1001.1,263.7,1001.1,251z"/>
<path d="M1028.4,222.9h7.8l0.8,9.4h0.5c5.9-6.1,12.3-10.8,21-10.8c13.2,0,19.3,7.8,19.3,22.5v34.7h-9.5v-33.5
	c0-10.6-3.7-15.5-12.8-15.5c-6.7,0-11.2,3.3-17.6,10v39h-9.5L1028.4,222.9L1028.4,222.9z"/>
<path d="M1163.4,269l5.8-6.7c5.9,5.8,13.8,9.2,22.1,9.3c10.4,0,16.3-4.9,16.3-11.8c0-8.1-5.9-10.4-13.5-13.6l-10.9-4.8
	c-7.5-3-16.2-8.3-16.2-19.4c0-11.5,10.4-20,24.7-20c8.7-0.1,17,3.3,23.2,9.3l-5.1,6.2c-5-4.7-11.7-7.2-18.5-7
	c-8.7,0-14.6,4.1-14.6,10.9c0,7.2,7,9.9,13.5,12.4l10.6,4.7c9.3,3.7,16.7,9,16.7,20.1c0,12-10.1,21.5-26.7,21.5
	C1180.5,280.3,1170.6,276.2,1163.4,269z"/>
<path d="M1232.4,301.7l2-7.6c1.6,0.5,3.4,0.8,5.1,0.8c7.8,0,12.5-4.9,15.3-11.8l1.6-4.1l-26-56h9.7l13.6,30.8
	c2.2,4.9,4.6,10.8,6.9,16.2h0.5c2-5.3,4.1-11.2,6-16.2l12.1-30.8h9.2l-24.7,60.5c-4.1,11-10.9,19.4-23.7,19.4
	C1237.4,302.9,1234.8,302.5,1232.4,301.7z"/>
<path d="M1301.9,271.4l4.4-6.3c7,5.1,15.6,7.8,24.3,7.6c9.4,0,14-3.9,14-8.6c0-4.3-2.2-7.2-17.4-10.4c-14.6-3-21.9-7.9-21.9-16.3
	c0-9,7.9-15.9,23.2-15.9c8,0.2,15.8,2.6,22.5,7.1l-4.6,6.1c-5.5-3.8-12-5.9-18.7-5.9c-9.4,0-12.9,3.8-12.9,8.1
	c0,4.8,4.8,6.9,16.3,9.3c18.5,4,23,8.6,23,17.2c0,9.1-8.9,16.7-24.8,16.7C1319.4,280.1,1309.9,277,1301.9,271.4z"/>
<path d="M1386.4,257.1v-26.5h-15.9v-7.1l16.2-0.6l1.3-17.9h7.9v17.9h27.4v7.7H1396v26.6c0,10,3.3,15.2,14.1,15.2
	c4.6,0,9.1-0.8,13.3-2.5l2.1,7c-5.6,2.1-11.5,3.3-17.5,3.3C1391.7,280.2,1386.4,270.9,1386.4,257.1z"/>
<path d="M1439.6,250.7c0-18.2,13.6-29.2,28.5-29.2c16.1,0,25.5,10.5,25.5,26.2c0,1.9-0.2,3.9-0.5,5.8h-47.3v-7.4h41.6l-2.4,2.6
	c0-13.2-6.6-19.8-16.8-19.8c-10.4,0-19.3,7.8-19.3,21.7c0,14.5,9.4,21.9,21.9,21.9c6.1,0,12-1.9,17-5.3l3.5,6.2
	c-6.4,4.4-13.9,6.7-21.6,6.7C1452.9,280.2,1439.6,269.4,1439.6,250.7z"/>
<path d="M1507.4,222.9h7.6l0.8,7.4h0.2c2.9-5.2,6.3-8.7,12.8-8.7c5.5,0,9,3.2,10.6,9.7c3.2-6,6.7-9.7,13.1-9.7
	c7.8,0,12.4,6.1,12.4,17.3v40h-9.4v-39.3c0-6.4-1.8-9.8-6-9.8c-3.9,0-6,2.9-9,8.6v40.5h-8.7v-39.3c0-6.4-1.6-9.8-5.8-9.8
	c-3.9,0-6.4,2.9-9.2,8.6v40.5h-9.4V222.9z"/>
<path d="M1577.9,271.4l4.4-6.3c7,5.1,15.6,7.8,24.3,7.6c9.4,0,14-3.9,14-8.6c0-4.3-2.2-7.2-17.4-10.4c-14.6-3-21.9-7.9-21.9-16.3
	c0-9,7.9-15.9,23.2-15.9c8,0.2,15.8,2.6,22.5,7.1l-4.6,6.1c-5.5-3.8-12-5.9-18.7-5.9c-9.4,0-12.9,3.8-12.9,8.1
	c0,4.8,4.8,6.9,16.3,9.3c18.5,4,23,8.6,23,17.2c0,9.1-8.9,16.7-24.8,16.7C1595.4,280.1,1585.9,277,1577.9,271.4z"/>
<path d="M1713.8,241.1c0-24.4,13.9-39.1,33.5-39.1c7.9-0.1,15.5,3.3,20.8,9.2l-5.5,6.1c-3.6-3.8-8-6.8-15.3-6.8
	c-14.1,0-23.3,11.6-23.3,30.4c0,19,8.4,30.8,23.1,30.8c5.3,0,10.2-1.6,13-4.4v-19.7h-15v-7.9h23.9v31.7c-4.7,4.8-12.8,8.7-22.5,8.7
	C1727.5,280.2,1713.8,265.7,1713.8,241.1z"/>
<path d="M1793.4,222.9h7.9l0.9,13.2h0.2c5.9-9.1,14.6-14.6,25-14.6c3.8-0.1,7.6,0.7,11,2.3l-2.2,8.2c-3.3-1.3-6.8-1.9-10.4-1.8
	c-8.4,0-16.3,4.3-23,16v32.7h-9.5L1793.4,222.9L1793.4,222.9z"/>
<path d="M1852.6,251c0-18.7,12.9-29.4,27.6-29.4s27.6,10.7,27.6,29.4c0,18.5-12.9,29.2-27.6,29.2S1852.6,269.5,1852.6,251z
	 M1898.1,251c0-12.9-7.1-21.5-17.8-21.5s-17.8,8.6-17.8,21.5c0,12.9,7.1,21.3,17.8,21.3S1898.1,263.7,1898.1,251z"/>
<path d="M1923.6,257.6v-34.7h9.5v33.5c0,10.5,3.7,15.5,12.9,15.5c6.4,0,11.2-3,17.4-10.2v-38.8h9.5v55.9h-7.9l-0.8-9.8h-0.5
	c-5.6,6.6-12.2,11.2-20.8,11.2C1929.7,280.2,1923.6,272.4,1923.6,257.6z"/>
<path d="M1994.4,222.9h7.8l0.8,7.1h0.3c5.2-4.9,12.5-8.5,19.3-8.5c15.1,0,23.1,11.2,23.1,28.5c0,19-12,30.1-25.4,30.1
	c-5.2,0-11.6-2.6-16.7-7.2h-0.2l0.5,10.6v18.9h-9.5L1994.4,222.9L1994.4,222.9z M2036,250c0-12.3-4.6-20.5-15.8-20.5
	c-4.9,0-10.7,2.5-16.3,8.3v27.8c5.2,4.7,11,6.4,14.8,6.4C2028.7,272.1,2036,263.8,2036,250z"/>
<image style="overflow:visible;" width="512" height="502" xlink:href="../../../../Downloads/unnamed.png"  transform="matrix(0.7523 0 0 0.6717 2121.5547 26.5578)">
</image>
<g>
	<path class="st0" d="M106.4,131.8c1.3,4.5,3,8.7,5.3,12.8l-6.3,8.2c-2.1,2.7-1.8,6.5,0.5,8.9l10.9,11.2c2.4,2.4,6.1,2.6,8.7,0.5
		l8-6.4c4.1,2.4,8.4,4.3,13,5.6l1.2,10.5c0.4,3.4,3.2,5.9,6.5,5.9h15.5c3.3,0,6.1-2.5,6.5-5.9l1.1-10.1c4.9-1.3,9.5-3.2,13.9-5.8
		l7.7,6.2c2.6,2.1,6.3,1.9,8.7-0.5l10.9-11.2c2.4-2.4,2.6-6.2,0.5-8.9l-6-7.8c2.5-4.4,4.4-9.1,5.7-14l9.2-1.1
		c3.3-0.4,5.8-3.3,5.8-6.7v-15.8c0-3.4-2.5-6.3-5.8-6.7l-9.1-1.1c-1.2-4.9-3.1-9.5-5.5-13.8l5.6-7.2c2.1-2.7,1.8-6.5-0.5-8.9
		l-10.9-11.2c-2.4-2.4-6.1-2.6-8.7-0.5l-6.9,5.6c-4.5-2.7-9.2-4.7-14.2-6.1l-1-9.1c-0.4-3.4-3.2-5.9-6.5-5.9h-15.5
		c-3.3,0-6.1,2.5-6.5,5.9l-1,9.1c-5.1,1.4-10,3.5-14.6,6.3l-7.1-5.8c-2.6-2.1-6.3-1.9-8.7,0.5l-10.9,11.2c-2.4,2.4-2.6,6.2-0.5,8.9
		l6,7.7c-2.4,4.4-4.2,9.1-5.4,14l-9.5,1.1c-3.3,0.4-5.8,3.3-5.8,6.7v15.8c0,3.4,2.5,6.3,5.8,6.7L106.4,131.8z M162.4,89
		c14.1,0,25.6,11.7,25.6,26.2s-11.5,26.2-25.6,26.2c-14.1,0-25.6-11.7-25.6-26.2S148.3,89,162.4,89z"/>
	<path class="st1" d="M315.3,135.7l-8.2-7.1c-2.5-2.2-6.2-2.1-8.6,0.2l-4.5,4.3c-3.8-1.9-7.8-3.2-12-4l-1.3-6.4
		c-0.6-3.3-3.6-5.6-6.9-5.3l-10.6,0.9c-3.3,0.3-5.8,3-5.9,6.4l-0.2,6.5c-4.1,1.5-8,3.6-11.5,6.2l-5.4-3.7c-2.7-1.9-6.4-1.3-8.5,1.2
		l-6.9,8.4c-2.1,2.6-2,6.4,0.2,8.8l4.7,5.1c-1.6,3.8-2.8,7.7-3.5,11.8l-6.7,1.4c-3.2,0.7-5.4,3.7-5.2,7.1l0.9,10.9
		c0.3,3.3,3,6,6.2,6.1l7.3,0.2c1.3,3.6,3.1,6.9,5.2,10.1l-4.1,6.3c-1.8,2.8-1.3,6.5,1.2,8.7l8.2,7.1c2.5,2.2,6.2,2.1,8.6-0.2
		l5.3-5.1c3.5,1.7,7.2,2.9,11,3.7l1.5,7.5c0.6,3.3,3.6,5.6,6.9,5.3l10.6-0.9c3.3-0.3,5.8-3,5.9-6.4l0.2-7.3c3.9-1.4,7.6-3.3,11-5.7
		l5.9,4c2.7,1.9,6.4,1.3,8.5-1.2l6.9-8.3c2.1-2.6,2-6.4-0.2-8.8l-4.7-5.1c1.7-3.8,3-7.7,3.7-11.8l6.5-1.4c3.2-0.7,5.4-3.7,5.2-7.1
		l-0.9-10.9c-0.3-3.3-3-6-6.2-6.1l-6.5-0.2c-1.3-3.9-3.2-7.5-5.4-10.9l3.5-5.5C318.4,141.6,317.9,137.9,315.3,135.7z M275.2,198.7
		c-11.5,1-21.7-7.8-22.6-19.5c-1-11.8,7.6-22.2,19.1-23.1c11.5-1,21.7,7.8,22.6,19.5C295.3,187.3,286.7,197.7,275.2,198.7z"/>
	<path class="st2" d="M143.7,228c-3.3,0.3-5.8,3.2-5.8,6.5l-0.1,6.7c-0.1,3.4,2.4,6.2,5.6,6.7l4.8,0.6c0.8,3,1.9,5.9,3.4,8.6
		l-3.1,3.9c-2.1,2.6-1.9,6.4,0.4,8.8l4.6,4.8c2.3,2.4,6,2.7,8.6,0.6l3.9-3c2.7,1.6,5.6,2.9,8.6,3.8l0.5,5.1c0.3,3.3,3.1,5.9,6.4,5.9
		l6.6,0.1c3.3,0.1,6.1-2.4,6.5-5.8l0.6-4.8c3.3-0.8,6.4-2.1,9.3-3.7l3.6,3c2.6,2.1,6.2,2,8.6-0.4l4.7-4.7c2.4-2.4,2.6-6.1,0.6-8.8
		l-2.8-3.7c1.7-2.9,3-6,3.9-9.3l4.3-0.5c3.3-0.3,5.8-3.2,5.8-6.5l0.1-6.7c0.1-3.4-2.4-6.2-5.6-6.7l-4.2-0.6c-0.8-3.2-2-6.4-3.5-9.3
		l2.6-3.3c2.1-2.6,1.9-6.4-0.4-8.8l-4.6-4.8c-2.3-2.4-6-2.7-8.6-0.6l-3.1,2.5c-3-1.8-6.1-3.2-9.4-4.2l-0.4-4.2
		c-0.3-3.3-3.1-5.9-6.4-5.9l-6.6-0.1c-3.3-0.1-6.1,2.4-6.5,5.8l-0.5,4.1c-3.4,0.9-6.7,2.3-9.8,4.1l-3.2-2.7c-2.6-2.1-6.2-2-8.6,0.4
		l-4.7,4.7c-2.4,2.4-2.6,6.1-0.6,8.8l2.8,3.7c-1.6,2.9-2.9,6-3.7,9.3L143.7,228z M186,220.4c9.4,0.1,16.9,8,16.8,17.7
		c-0.1,9.6-7.9,17.3-17.3,17.2c-9.4-0.1-16.9-8-16.8-17.7C168.8,228,176.6,220.3,186,220.4z"/>
</g>
<path d="M253.7,44.4h-3.1c-3,0-5.5,2.5-5.5,5.7V63c0,3.1,2.5,5.7,5.5,5.7h3.1c3,0,5.5-2.5,5.5-5.7V50
	C259.2,46.9,256.8,44.4,253.7,44.4z M254.5,63c0,0.4-0.4,0.8-0.8,0.8h-3.1c-0.4,0-0.8-0.4-0.8-0.8V50c0-0.4,0.4-0.8,0.8-0.8h3.1
	c0.4,0,0.8,0.4,0.8,0.8V63z"/>
<path d="M278.9,63.8h-2.4v-17c0-1.3-1.1-2.4-2.4-2.4h-4.7c-1.3,0-2.4,1.1-2.4,2.4c0,1.3,1.1,2.4,2.4,2.4h2.4v14.5h-2.4
	c-1.3,0-2.4,1.1-2.4,2.4s1.1,2.4,2.4,2.4h9.4c1.3,0,2.4-1.1,2.4-2.4S280.2,63.8,278.9,63.8z"/>
<path d="M319.9,44.4h-3.1c-3,0-5.5,2.5-5.5,5.7V63c0,3.1,2.5,5.7,5.5,5.7h3.1c3,0,5.5-2.5,5.5-5.7V50
	C325.4,46.9,322.9,44.4,319.9,44.4z M320.7,63c0,0.4-0.4,0.8-0.8,0.8h-3.1c-0.4,0-0.8-0.4-0.8-0.8V50c0-0.4,0.4-0.8,0.8-0.8h3.1
	c0.4,0,0.8,0.4,0.8,0.8V63z"/>
<path class="st1" d="M301,63.8h-2.4v-17c0-1.3-1.1-2.4-2.4-2.4h-4.7c-1.3,0-2.4,1.1-2.4,2.4c0,1.3,1.1,2.4,2.4,2.4h2.4v14.5h-2.4
	c-1.3,0-2.4,1.1-2.4,2.4s1.1,2.4,2.4,2.4h9.4c1.3,0,2.4-1.1,2.4-2.4S302.3,63.8,301,63.8z"/>
<path d="M237,63.8h-2.4v-17c0-1.3-1.1-2.4-2.4-2.4h-4.7c-1.3,0-2.4,1.1-2.4,2.4c0,1.3,1.1,2.4,2.4,2.4h2.4v14.5h-2.4
	c-1.3,0-2.4,1.1-2.4,2.4s1.1,2.4,2.4,2.4h9.4c1.3,0,2.4-1.1,2.4-2.4S238.3,63.8,237,63.8z"/>
<path d="M107.7,270.6h-1.6c-1.5,0-2.8,1.5-2.8,3.3v7.6c0,1.8,1.2,3.3,2.8,3.3h1.6c1.5,0,2.8-1.5,2.8-3.3v-7.6
	C110.4,272.1,109.2,270.6,107.7,270.6z M108,281.5c0,0.3-0.2,0.5-0.4,0.5h-1.6c-0.2,0-0.4-0.2-0.4-0.5v-7.6c0-0.3,0.2-0.5,0.4-0.5
	h1.6c0.2,0,0.4,0.2,0.4,0.5V281.5z"/>
<path d="M120.3,282h-1.2v-10c0-0.8-0.5-1.4-1.2-1.4h-2.4c-0.7,0-1.2,0.6-1.2,1.4s0.5,1.4,1.2,1.4h1.2v8.6h-1.2
	c-0.7,0-1.2,0.6-1.2,1.4c0,0.8,0.5,1.4,1.2,1.4h4.7c0.7,0,1.2-0.6,1.2-1.4C121.4,282.6,120.9,282,120.3,282z"/>
<path d="M140.7,270.6h-1.6c-1.5,0-2.8,1.5-2.8,3.3v7.6c0,1.8,1.2,3.3,2.8,3.3h1.6c1.5,0,2.8-1.5,2.8-3.3v-7.6
	C143.5,272.1,142.3,270.6,140.7,270.6z M141.1,281.5c0,0.3-0.2,0.5-0.4,0.5h-1.6c-0.2,0-0.4-0.2-0.4-0.5v-7.6c0-0.3,0.2-0.5,0.4-0.5
	h1.6c0.2,0,0.4,0.2,0.4,0.5V281.5z"/>
<path class="st3" d="M131.3,282h-1.2v-10c0-0.8-0.5-1.4-1.2-1.4h-2.4c-0.7,0-1.2,0.6-1.2,1.4s0.5,1.4,1.2,1.4h1.2v8.6h-1.2
	c-0.7,0-1.2,0.6-1.2,1.4c0,0.8,0.5,1.4,1.2,1.4h4.7c0.7,0,1.2-0.6,1.2-1.4C132.5,282.6,131.9,282,131.3,282z"/>
<path d="M99.3,282h-1.2v-10c0-0.8-0.5-1.4-1.2-1.4h-2.4c-0.7,0-1.2,0.6-1.2,1.4s0.5,1.4,1.2,1.4h1.2v8.6h-1.2
	c-0.7,0-1.2,0.6-1.2,1.4c0,0.8,0.5,1.4,1.2,1.4h4.7c0.7,0,1.2-0.6,1.2-1.4C100.5,282.6,99.9,282,99.3,282z"/>
<g>
	<path class="st4" d="M273.2,164.2c-7,0-12.6,5.9-12.6,13.1c0,7.2,5.7,13.1,12.6,13.1s12.6-5.9,12.6-13.1
		C285.8,170.1,280.2,164.2,273.2,164.2z M275.8,184.5c-0.7,0.3-1.2,0.5-1.6,0.6c-0.4,0.1-0.8,0.2-1.4,0.2c-0.8,0-1.4-0.2-1.8-0.6
		c-0.4-0.4-0.7-0.9-0.7-1.5c0-0.2,0-0.5,0-0.7c0-0.2,0.1-0.5,0.2-0.8l0.8-3c0.1-0.3,0.1-0.6,0.2-0.8c0-0.3,0.1-0.5,0.1-0.7
		c0-0.4-0.1-0.6-0.2-0.8c-0.2-0.1-0.4-0.2-0.9-0.2c-0.2,0-0.4,0-0.6,0.1c-0.2,0.1-0.4,0.1-0.6,0.2l0.2-0.9c0.5-0.2,1-0.4,1.5-0.6
		c0.5-0.2,0.9-0.2,1.4-0.2c0.8,0,1.4,0.2,1.8,0.6c0.4,0.4,0.6,0.9,0.6,1.5c0,0.1,0,0.4,0,0.7c0,0.3-0.1,0.6-0.2,0.9l-0.8,3
		c-0.1,0.2-0.1,0.5-0.2,0.8c-0.1,0.3-0.1,0.5-0.1,0.7c0,0.4,0.1,0.7,0.3,0.8c0.2,0.1,0.5,0.2,0.9,0.2c0.2,0,0.4,0,0.7-0.1
		c0.2-0.1,0.4-0.1,0.5-0.2L275.8,184.5z M275.7,172.5c-0.4,0.4-0.8,0.5-1.4,0.5c-0.5,0-1-0.2-1.4-0.5c-0.4-0.4-0.6-0.8-0.6-1.3
		c0-0.5,0.2-1,0.6-1.3c0.4-0.4,0.8-0.6,1.4-0.6c0.5,0,1,0.2,1.4,0.6c0.4,0.4,0.6,0.8,0.6,1.3C276.3,171.6,276.1,172.1,275.7,172.5z"
		/>
</g>
<g>
	<path class="st4" d="M185.8,225.1c-7,0-12.6,5.9-12.6,13.1c0,7.2,5.7,13.1,12.6,13.1c7,0,12.6-5.9,12.6-13.1
		C198.4,231,192.7,225.1,185.8,225.1z M188.4,245.4c-0.7,0.3-1.2,0.5-1.6,0.6c-0.4,0.1-0.8,0.2-1.4,0.2c-0.8,0-1.4-0.2-1.8-0.6
		c-0.4-0.4-0.7-0.9-0.7-1.5c0-0.2,0-0.5,0-0.7c0-0.2,0.1-0.5,0.2-0.8l0.8-3c0.1-0.3,0.1-0.6,0.2-0.8c0-0.3,0.1-0.5,0.1-0.7
		c0-0.4-0.1-0.6-0.2-0.8c-0.2-0.1-0.4-0.2-0.9-0.2c-0.2,0-0.4,0-0.6,0.1c-0.2,0.1-0.4,0.1-0.6,0.2l0.2-0.9c0.5-0.2,1-0.4,1.5-0.6
		c0.5-0.2,0.9-0.2,1.4-0.2c0.8,0,1.4,0.2,1.8,0.6c0.4,0.4,0.6,0.9,0.6,1.5c0,0.1,0,0.4,0,0.7c0,0.3-0.1,0.6-0.2,0.9l-0.8,3
		c-0.1,0.2-0.1,0.5-0.2,0.8c-0.1,0.3-0.1,0.5-0.1,0.7c0,0.4,0.1,0.7,0.3,0.8c0.2,0.1,0.5,0.2,0.9,0.2c0.2,0,0.4,0,0.7-0.1
		c0.2-0.1,0.4-0.1,0.5-0.2L188.4,245.4z M188.2,233.3c-0.4,0.4-0.8,0.5-1.4,0.5c-0.5,0-1-0.2-1.4-0.5c-0.4-0.4-0.6-0.8-0.6-1.3
		c0-0.5,0.2-1,0.6-1.3c0.4-0.4,0.8-0.6,1.4-0.6c0.5,0,1,0.2,1.4,0.6c0.4,0.4,0.6,0.8,0.6,1.3C188.8,232.5,188.6,233,188.2,233.3z"/>
</g>
<text transform="matrix(0.9774 0 0 1 153.1768 123.7536)" class="st5 st6">d</text>
<image style="overflow:visible;" width="180" height="180" xlink:href="../../../../Downloads/lily-logo.jpeg"  transform="matrix(0.2467 0 0 0.2281 265.4569 329.2361)">
</image>
<text transform="matrix(0.9173 0 0 1 80.1492 345.224)"><tspan x="0" y="0" class="st5 st7">Inference, Information, </tspan><tspan x="0" y="17" class="st5 st7">&amp; Decision System Group</tspan></text>
</svg>
