<?xml version="1.0" encoding="utf-8"?>
<!-- Generator: Adobe Illustrator 23.0.1, SVG Export Plug-In . SVG Version: 6.00 Build 0)  -->
<svg version="1.1" id="Capa_1" xmlns="http://www.w3.org/2000/svg" xmlns:xlink="http://www.w3.org/1999/xlink" x="0px" y="0px"
	 viewBox="0 0 3552.2 389.6" style="enable-background:new 0 0 3552.2 389.6;" xml:space="preserve">
<style type="text/css">
	.st0{fill:#FFC30E;}
	.st1{fill:#F9F0DC;}
	.st2{fill:#3D1F20;}
	.st3{fill:none;stroke:#00356B;stroke-width:9;}
	.st4{fill:none;stroke:#FFFFFF;stroke-width:4.2;}
	.st5{fill:#00356B;}
</style>
<path class="st0" d="M293.3,242c-40.4,40.4-106,40.4-146.4,0s-40.4-106,0-146.4s106-40.4,146.4,0S333.7,201.6,293.3,242z"/>
<g>
	<ellipse class="st1" cx="220.2" cy="168.7" rx="54.4" ry="54.4"/>
	<ellipse class="st1" cx="344.1" cy="44.5" rx="38" ry="38"/>
	<ellipse class="st1" cx="45.8" cy="147.8" rx="38" ry="38"/>
	<ellipse class="st1" cx="243" cy="345.2" rx="38" ry="38"/>
</g>
<path class="st2" d="M344.1,0c-12,0-23.2,4.8-31.6,13.2s-13.2,19.6-13.2,31.6c0,9.6,3.2,18.8,8.8,26.4l-15.6,15.6
	c-20-18-45.6-28-72.8-28c-29.2,0-56.8,11.2-77.6,32c-16,16-26.4,36.4-30.4,58.4l-21.6-2.4c-0.4-9.6-3.6-18.4-9.6-26
	c-7.2-9.2-18-15.2-29.6-16.8c-24.8-2.8-46.4,14.8-49.6,38.8c-1.6,11.6,2,23.6,9.2,32.8s18,15.2,29.6,16.8c1.6,0.4,3.6,0.4,5.2,0.4
	c20.4,0,37.6-13.6,42.8-32.8l21.6,2.4c0,2-0.4,4.4-0.4,6.4c0,29.2,11.6,57.2,32.4,78c21.2,20.4,48.8,32,78.4,32c2.8,0,5.6,0,8.4-0.4
	l2.8,24c-20.8,5.6-35.2,26-32.4,48c2.8,22.4,21.6,39.2,44,39.2c1.6,0,3.6,0,5.2-0.4c11.6-1.6,22.4-7.2,29.6-16.8
	c7.2-9.2,10.8-20.8,9.2-32.8c-2.8-22-20.8-38.4-42.8-39.2l-2.8-24c21.2-4,40.8-14.4,56.4-30c20.8-20.8,32.4-48.4,32.4-78
	c0-27.2-10-52.8-28-72.8L317.7,80c7.6,5.6,16.8,8.8,26.4,8.8c12,0,23.2-4.8,31.6-13.2c17.2-17.2,17.2-45.6,0-62.8
	C367.3,4.8,356.1,0,344.1,0z M42.1,178.8c-8.4-0.8-15.6-5.2-20.8-11.6c-5.2-6.4-7.6-14.8-6.4-23.2c2-15.6,15.2-27.6,31.2-27.6
	c1.2,0,2.4,0,3.6,0.4c8.4,0.8,15.6,5.2,20.8,11.6c5.2,6.4,7.6,14.8,6.4,23.2l0,0l0,0C74.5,168.4,59.3,181.2,42.1,178.8z
	 M274.1,341.2c0.8,8.4-1.2,16.4-6.4,23.2c-5.2,6.4-12.8,10.8-20.8,11.6c-17.2,2-32.8-10.4-34.8-27.2c-2-17.2,10.4-32.8,27.2-34.8
	l0,0l0,0c1.2,0,2.4-0.4,3.6-0.4C258.9,313.6,272.1,325.6,274.1,341.2z M151.3,100c18.4-18.4,42.8-28.4,68.4-28.4
	c23.6,0,46,8.4,63.6,24l-25.2,25.2c-10.8-8.8-24-13.6-38.4-13.6c-16.4,0-31.6,6.4-43.2,18c-8.4,8.4-13.6,18.4-16.4,29.6l-35.2-4
	C128.5,131.6,137.7,114,151.3,100z M220.1,216.8c-12.8,0-24.8-4.8-34-14s-14-21.2-14-34s4.8-24.8,14-34s21.2-14,34-14
	s24.8,4.8,34,14c18.8,18.8,18.8,49.2,0,68C244.9,211.6,232.9,216.8,220.1,216.8z M220.1,265.6c-26,0-50.4-10-68.4-28.4
	c-18.4-18.4-28.8-42.8-28.8-68.4c0-1.6,0-3.2,0.4-4.8l35.6,4.4c0,0.4,0,0.4,0,0.8c0,16.4,6.4,31.6,18,43.2s26.8,18,43.2,18
	c0.8,0,1.6,0,2.4,0l4.4,35.6C224.5,265.6,222.1,265.6,220.1,265.6z M316.9,168.8c0,26-10,50.4-28.4,68.4
	c-13.6,13.6-30.4,22.4-48.8,26.4l-4.4-36c10.4-2.8,20-8,27.6-16c22.4-22.4,23.6-57.6,4.4-81.6l25.2-25.2
	C308.5,122.8,316.9,145.2,316.9,168.8z M366.5,66.8c-6,6-13.6,9.2-22,9.2s-16.4-3.2-22-9.2c-6-6-9.2-13.6-9.2-22s3.2-16.4,9.2-22
	c6-6,13.6-9.2,22-9.2s16.4,3.2,22,9.2C378.5,34.4,378.5,54.4,366.5,66.8z"/>
<g>
	<g>
		<path d="M336,54h6.8V32.4H336v-3h17.2v3h-6.8V54h6.8v3H336V54z"/>
	</g>
</g>
<g>
	<g>
		<path d="M38,157h6.8v-21.6H38v-3h17.2v3h-6.8V157h6.8v3H38V157z"/>
	</g>
</g>
<g>
	<g>
		<path d="M234.7,332.4h6.8c8.3,0,12.8,4.9,12.8,13.7c0,8.8-4.5,13.9-12.6,13.9h-7V332.4z M241.2,357.1c6.3,0,9.4-4,9.4-11
			c0-6.9-3.1-10.8-9.4-10.8h-3v21.8H241.2z"/>
	</g>
</g>
<g>
	<g>
		<path d="M505.2,132.6h18.7V73.5h-18.7v-8.2h47.2v8.2h-18.7v59.1h18.7v8.2h-47.2V132.6z"/>
		<path d="M573.9,84.9h7.8l0.8,9.4h0.5c5.9-6.1,12.3-10.8,21-10.8c13.2,0,19.3,7.8,19.3,22.5v34.7h-9.5v-33.5
			c0-10.6-3.7-15.5-12.8-15.5c-6.7,0-11.2,3.3-17.6,10v39h-9.5V84.9z"/>
		<path d="M644.1,85.5l16.2-0.6h32.5v7.7H644L644.1,85.5L644.1,85.5z M660.1,80.2c0-13.6,7.1-22.7,22.5-22.7c5.5,0,10.8,1,16.1,3.2
			l-2.2,7.1c-4.6-2-8.2-2.6-13-2.6c-10,0-14,5.6-14,14.6v61h-9.4L660.1,80.2L660.1,80.2z"/>
		<path d="M709.1,112.7c0-18.2,13.6-29.2,28.5-29.2c16.1,0,25.5,10.5,25.5,26.2c0,2.2-0.2,4.3-0.5,5.8h-47.3v-7.4H757l-2.4,2.6
			c0-13.2-6.6-19.8-16.8-19.8c-10.4,0-19.3,7.8-19.3,21.7c0,14.5,9.4,21.9,21.9,21.9c6.7,0,12-2.1,17-5.3l3.5,6.2
			c-5.5,3.7-12.7,6.7-21.6,6.7C722.4,142.2,709.1,131.4,709.1,112.7z"/>
		<path d="M786.9,84.9h7.9l0.9,13.2h0.2c5.9-9.1,14.6-14.6,25-14.6c4.1,0,7.6,0.6,11,2.3l-2.2,8.2c-3.9-1.3-6-1.8-10.4-1.8
			c-8.4,0-16.3,4.3-23,16v32.7h-9.5L786.9,84.9L786.9,84.9z"/>
		<path d="M847.1,112.7c0-18.2,13.6-29.2,28.5-29.2c16.1,0,25.5,10.5,25.5,26.2c0,2.2-0.2,4.3-0.5,5.8h-47.3v-7.4H895l-2.4,2.6
			c0-13.2-6.6-19.8-16.8-19.8c-10.4,0-19.3,7.8-19.3,21.7c0,14.5,9.4,21.9,21.9,21.9c6.7,0,12-2.1,17-5.3l3.5,6.2
			c-5.5,3.7-12.7,6.7-21.6,6.7C860.4,142.2,847.1,131.4,847.1,112.7z"/>
		<path d="M918.9,84.9h7.8l0.8,9.4h0.5c5.9-6.1,12.3-10.8,21-10.8c13.2,0,19.3,7.8,19.3,22.5v34.7h-9.5v-33.5
			c0-10.6-3.7-15.5-12.8-15.5c-6.7,0-11.2,3.3-17.6,10v39h-9.5V84.9z"/>
		<path d="M986.4,113c0-18.7,14.3-29.4,31.2-29.4c9.1,0,15.8,3.7,20.4,8.2l-4.7,6.1c-4.6-3.9-9.4-6.3-15.3-6.3
			c-12.9,0-21.7,8.6-21.7,21.5c0,12.8,8.7,21.3,21.5,21.3c6.9,0,12.7-3.1,17.3-7l4.3,6.2c-6.2,5.5-13.9,8.7-22.2,8.7
			C999.6,142.2,986.4,131.5,986.4,113z"/>
		<path d="M1054.1,112.7c0-18.2,13.6-29.2,28.5-29.2c16.1,0,25.5,10.5,25.5,26.2c0,2.2-0.2,4.3-0.5,5.8h-47.3v-7.4h41.6l-2.4,2.6
			c0-13.2-6.6-19.8-16.8-19.8c-10.4,0-19.3,7.8-19.3,21.7c0,14.5,9.4,21.9,21.9,21.9c6.7,0,12-2.1,17-5.3l3.5,6.2
			c-5.5,3.7-12.7,6.7-21.6,6.7C1067.4,142.2,1054.1,131.4,1054.1,112.7z"/>
		<path d="M1137.8,159.3c9.8-4.4,14.6-10.6,14.5-20.1l-2.1-10.6l6.4,9.1c-1.8,2.1-4.1,2.6-6.4,2.6c-4.9,0-9-2.9-9-8.6
			c0-5.6,4.3-8.7,9.2-8.7c6.8,0,10.3,5.6,10.3,14.7c0,13.5-7.6,22.9-20.2,27.6L1137.8,159.3z"/>
		<path d="M1264.2,132.6h18.7V73.5h-18.7v-8.2h47.2v8.2h-18.7v59.1h18.7v8.2h-47.2V132.6z"/>
		<path d="M1332.9,84.9h7.8l0.8,9.4h0.5c5.9-6.1,12.3-10.8,21-10.8c13.2,0,19.3,7.8,19.3,22.5v34.7h-9.5v-33.5
			c0-10.6-3.7-15.5-12.8-15.5c-6.7,0-11.2,3.3-17.6,10v39h-9.5L1332.9,84.9L1332.9,84.9z"/>
		<path d="M1403.1,85.5l16.2-0.6h32.5v7.7H1403v-7.1H1403.1z M1419.1,80.2c0-13.6,7.1-22.7,22.5-22.7c5.5,0,10.8,1,16.1,3.2
			l-2.2,7.1c-4.6-2-8.2-2.6-13-2.6c-10,0-14,5.6-14,14.6v61h-9.4V80.2z"/>
		<path d="M1467.1,113c0-18.7,12.9-29.4,27.6-29.4s27.6,10.7,27.6,29.4c0,18.5-12.9,29.2-27.6,29.2S1467.1,131.5,1467.1,113z
			 M1512.6,113c0-12.9-7.1-21.5-17.8-21.5c-10.7,0-17.8,8.6-17.8,21.5c0,12.8,7.1,21.3,17.8,21.3
			C1505.4,134.2,1512.6,125.7,1512.6,113z"/>
		<path d="M1545.9,84.9h7.9l0.9,13.2h0.2c5.9-9.1,14.6-14.6,25-14.6c4.1,0,7.6,0.6,11,2.3l-2.2,8.2c-3.9-1.3-6-1.8-10.4-1.8
			c-8.4,0-16.3,4.3-23,16v32.7h-9.5L1545.9,84.9L1545.9,84.9z"/>
		<path d="M1604.9,84.9h7.6l0.8,7.4h0.2c2.9-5.2,6.3-8.7,12.8-8.7c5.5,0,9,3.2,10.6,9.7c3.2-6,6.7-9.7,13.1-9.7
			c7.8,0,12.4,6.1,12.4,17.3v40h-9.4v-39.3c0-6.4-1.8-9.8-6-9.8c-3.9,0-6,2.9-9,8.6v40.5h-8.7v-39.3c0-6.4-1.6-9.8-5.8-9.8
			c-3.9,0-6.4,2.9-9.2,8.6v40.5h-9.4V84.9z"/>
		<path d="M1676.4,126.3c0-12.5,11.7-18.6,40.6-20.9c-0.3-7.6-4-14-14.8-14c-7.2,0-14.4,3.5-19.6,6.7l-3.8-6.4
			c5.8-3.7,15.2-8.1,25-8.1c15.3,0,22.8,9.1,22.8,23v34.3h-7.9l-0.8-7.6h-0.3c-6.1,4.8-14.1,9-22,9
			C1685.1,142.2,1676.4,136.3,1676.4,126.3z M1717,126.2v-14.5c-23.9,1.8-31.2,6.6-31.2,13.9c0,6.3,5.8,8.9,12.2,8.9
			C1704.4,134.5,1710.6,131.5,1717,126.2z"/>
		<path d="M1759.9,119.1V92.6H1744v-7.1l16.2-0.6l1.3-17.9h7.9v17.9h27.4v7.7h-27.4v26.6c0,10,3.3,15.2,14.1,15.2
			c5.2,0,9.3-1,13.3-2.5l2.1,7c-5.1,1.8-10.5,3.3-17.5,3.3C1765.2,142.2,1759.9,132.9,1759.9,119.1z"/>
		<path d="M1841.5,92.6h-25.9v-7.7h35.4v55.9h-9.5V92.6z M1837.7,65.8c0-4.4,3.2-7.4,7.6-7.4s7.6,3,7.6,7.4c0,4.5-3.2,7.4-7.6,7.4
			C1840.9,73.2,1837.7,70.3,1837.7,65.8z"/>
		<path d="M1881.1,113c0-18.7,12.9-29.4,27.6-29.4s27.6,10.7,27.6,29.4c0,18.5-12.9,29.2-27.6,29.2S1881.1,131.5,1881.1,113z
			 M1926.6,113c0-12.9-7.1-21.5-17.8-21.5c-10.7,0-17.8,8.6-17.8,21.5c0,12.8,7.1,21.3,17.8,21.3
			C1919.4,134.2,1926.6,125.7,1926.6,113z"/>
		<path d="M1953.9,84.9h7.8l0.8,9.4h0.5c5.9-6.1,12.3-10.8,21-10.8c13.2,0,19.3,7.8,19.3,22.5v34.7h-9.5v-33.5
			c0-10.6-3.7-15.5-12.8-15.5c-6.7,0-11.2,3.3-17.6,10v39h-9.5L1953.9,84.9L1953.9,84.9z"/>
		<path d="M464.6,259.2c0-21.7,32.5-26,32.5-42.2c0-4.4-1.8-8.3-6.9-8.3c-5.3,0-8.4,4.7-8.4,10.9c0,14.1,15.1,32.9,29.1,43.6
			c5.4,4.5,10.6,7.5,15.2,9l-2.6,7.9c-5.6-1.7-11.7-5.2-18.3-10.5c-16.1-12.9-31.6-34.4-31.6-49.8c0-10.1,6.7-17.9,16.6-17.9
			c9.4,0,14.7,6.1,14.7,15c0,18.7-31.1,24.8-31.1,41.7c0,8.4,6.4,13.9,14.5,13.9c5.9,0,11.4-3.7,15.9-8.9
			c5.8-6.7,9.8-15.3,12.3-25.6h8.9c-3,11.3-7.7,21.6-14.5,30.2c-6.1,7-13.6,11.8-23.7,11.8C473.8,280.2,464.6,271.4,464.6,259.2z"/>
		<path d="M607.8,203.4h18.6c22.7,0,35,13.5,35,37.4c0,24-12.3,38.1-34.5,38.1h-19.1V203.4z M625.7,270.9c17.1,0,25.6-11,25.6-30.1
			c0-19-8.5-29.4-25.6-29.4h-8.3V271h8.3V270.9z"/>
		<path d="M674.6,250.7c0-18.2,13.6-29.2,28.5-29.2c16.1,0,25.5,10.5,25.5,26.2c0,2.2-0.2,4.3-0.5,5.8h-47.3v-7.4h41.6l-2.4,2.6
			c0-13.2-6.6-19.8-16.8-19.8c-10.4,0-19.3,7.8-19.3,21.7c0,14.5,9.4,21.9,21.9,21.9c6.7,0,12-2.1,17-5.3l3.5,6.2
			c-5.5,3.7-12.7,6.7-21.6,6.7C687.9,280.2,674.6,269.4,674.6,250.7z"/>
		<path d="M744.9,251c0-18.7,14.3-29.4,31.2-29.4c9.1,0,15.8,3.7,20.4,8.2l-4.7,6.1c-4.6-3.9-9.4-6.3-15.3-6.3
			c-12.9,0-21.7,8.6-21.7,21.5c0,12.8,8.7,21.3,21.5,21.3c6.9,0,12.7-3.1,17.3-7l4.3,6.2c-6.2,5.5-13.9,8.7-22.2,8.7
			C758.1,280.2,744.9,269.5,744.9,251z"/>
		<path d="M841,230.6h-25.9v-7.7h35.4v55.9H841V230.6z M837.2,203.8c0-4.4,3.2-7.4,7.6-7.4s7.6,3,7.6,7.4c0,4.5-3.2,7.4-7.6,7.4
			S837.2,208.3,837.2,203.8z"/>
		<path d="M881.9,271.4l4.4-6.3c6.4,4.6,14,7.6,24.3,7.6c9.4,0,14-3.9,14-8.6c0-4.3-2.2-7.2-17.4-10.4c-14.6-3-21.9-7.9-21.9-16.3
			c0-9,7.9-15.9,23.2-15.9c8.5,0,17,3.3,22.5,7.1l-4.6,6.1c-5.2-3.6-11.6-5.9-18.7-5.9c-9.4,0-12.9,3.8-12.9,8.1
			c0,4.8,4.8,6.9,16.3,9.3c18.5,4,23,8.6,23,17.2c0,9.1-8.9,16.7-24.8,16.7C898.5,280.2,888.7,276.2,881.9,271.4z"/>
		<path d="M979,230.6h-25.9v-7.7h35.4v55.9H979V230.6z M975.2,203.8c0-4.4,3.2-7.4,7.6-7.4s7.6,3,7.6,7.4c0,4.5-3.2,7.4-7.6,7.4
			S975.2,208.3,975.2,203.8z"/>
		<path d="M1018.6,251c0-18.7,12.9-29.4,27.6-29.4s27.6,10.7,27.6,29.4c0,18.5-12.9,29.2-27.6,29.2S1018.6,269.5,1018.6,251z
			 M1064.1,251c0-12.9-7.1-21.5-17.8-21.5c-10.7,0-17.8,8.6-17.8,21.5c0,12.8,7.1,21.3,17.8,21.3
			C1056.9,272.2,1064.1,263.7,1064.1,251z"/>
		<path d="M1091.4,222.9h7.8l0.8,9.4h0.5c5.9-6.1,12.3-10.8,21-10.8c13.2,0,19.3,7.8,19.3,22.5v34.7h-9.5v-33.5
			c0-10.6-3.7-15.5-12.8-15.5c-6.7,0-11.2,3.3-17.6,10v39h-9.5L1091.4,222.9L1091.4,222.9z"/>
		<path d="M1226.4,269l5.8-6.7c5.8,5.6,13.6,9.3,22.1,9.3c10.4,0,16.3-4.9,16.3-11.8c0-8.1-5.9-10.4-13.5-13.6l-10.9-4.8
			c-7.5-3-16.2-8.3-16.2-19.4c0-11.5,10.4-20,24.7-20c9.4,0,17.7,3.8,23.2,9.3l-5.1,6.2c-4.9-4.4-10.7-7-18.5-7
			c-8.7,0-14.6,4.1-14.6,10.9c0,7.2,7,9.9,13.5,12.4l10.6,4.7c9.3,3.7,16.7,9,16.7,20.1c0,12-10.1,21.5-26.7,21.5
			C1242.8,280.2,1233.2,275.8,1226.4,269z"/>
		<path d="M1295.4,301.7l2-7.6c1.5,0.5,3.3,0.8,5.1,0.8c7.8,0,12.5-4.9,15.3-11.8l1.6-4.1l-26-56h9.7l13.6,30.8
			c2.2,4.9,4.6,10.8,6.9,16.2h0.5c2-5.3,4.1-11.2,6-16.2l12.1-30.8h9.2l-24.7,60.5c-4.1,11-10.9,19.4-23.7,19.4
			C1300.2,302.8,1297.4,302.4,1295.4,301.7z"/>
		<path d="M1364.9,271.4l4.4-6.3c6.4,4.6,14,7.6,24.3,7.6c9.4,0,14-3.9,14-8.6c0-4.3-2.2-7.2-17.4-10.4c-14.6-3-21.9-7.9-21.9-16.3
			c0-9,7.9-15.9,23.2-15.9c8.5,0,17,3.3,22.5,7.1l-4.6,6.1c-5.2-3.6-11.6-5.9-18.7-5.9c-9.4,0-12.9,3.8-12.9,8.1
			c0,4.8,4.8,6.9,16.3,9.3c18.5,4,23,8.6,23,17.2c0,9.1-8.9,16.7-24.8,16.7C1381.5,280.2,1371.7,276.2,1364.9,271.4z"/>
		<path d="M1449.4,257.1v-26.5h-15.9v-7.1l16.2-0.6l1.3-17.9h7.9v17.9h27.4v7.7H1459v26.6c0,10,3.3,15.2,14.1,15.2
			c5.2,0,9.3-1,13.3-2.5l2.1,7c-5.1,1.8-10.5,3.3-17.5,3.3C1454.7,280.2,1449.4,270.9,1449.4,257.1z"/>
		<path d="M1502.6,250.7c0-18.2,13.6-29.2,28.5-29.2c16.1,0,25.5,10.5,25.5,26.2c0,2.2-0.2,4.3-0.5,5.8h-47.3v-7.4h41.6l-2.4,2.6
			c0-13.2-6.6-19.8-16.8-19.8c-10.4,0-19.3,7.8-19.3,21.7c0,14.5,9.4,21.9,21.9,21.9c6.7,0,12-2.1,17-5.3l3.5,6.2
			c-5.5,3.7-12.7,6.7-21.6,6.7C1515.9,280.2,1502.6,269.4,1502.6,250.7z"/>
		<path d="M1570.4,222.9h7.6l0.8,7.4h0.2c2.9-5.2,6.3-8.7,12.8-8.7c5.5,0,9,3.2,10.6,9.7c3.2-6,6.7-9.7,13.1-9.7
			c7.8,0,12.4,6.1,12.4,17.3v40h-9.4v-39.3c0-6.4-1.8-9.8-6-9.8c-3.9,0-6,2.9-9,8.6v40.5h-8.7v-39.3c0-6.4-1.6-9.8-5.8-9.8
			c-3.9,0-6.4,2.9-9.2,8.6v40.5h-9.4V222.9z"/>
		<path d="M1640.9,271.4l4.4-6.3c6.4,4.6,14,7.6,24.3,7.6c9.4,0,14-3.9,14-8.6c0-4.3-2.2-7.2-17.4-10.4c-14.6-3-21.9-7.9-21.9-16.3
			c0-9,7.9-15.9,23.2-15.9c8.5,0,17,3.3,22.5,7.1l-4.6,6.1c-5.2-3.6-11.6-5.9-18.7-5.9c-9.4,0-12.9,3.8-12.9,8.1
			c0,4.8,4.8,6.9,16.3,9.3c18.5,4,23,8.6,23,17.2c0,9.1-8.9,16.7-24.8,16.7C1657.5,280.2,1647.7,276.2,1640.9,271.4z"/>
		<path d="M1776.8,241.1c0-24.4,13.9-39.1,33.5-39.1c10,0,16.6,4.7,20.8,9.2l-5.5,6.1c-3.6-3.8-8-6.8-15.3-6.8
			c-14.1,0-23.3,11.6-23.3,30.4c0,19,8.4,30.8,23.1,30.8c5.3,0,10.2-1.6,13-4.4v-19.7h-15v-7.9h23.9v31.7
			c-4.7,4.8-12.8,8.7-22.5,8.7C1790.5,280.2,1776.8,265.7,1776.8,241.1z"/>
		<path d="M1856.4,222.9h7.9l0.9,13.2h0.2c5.9-9.1,14.6-14.6,25-14.6c4.1,0,7.6,0.6,11,2.3l-2.2,8.2c-3.9-1.3-6-1.8-10.4-1.8
			c-8.4,0-16.3,4.3-23,16v32.7h-9.5L1856.4,222.9L1856.4,222.9z"/>
		<path d="M1915.6,251c0-18.7,12.9-29.4,27.6-29.4s27.6,10.7,27.6,29.4c0,18.5-12.9,29.2-27.6,29.2S1915.6,269.5,1915.6,251z
			 M1961.1,251c0-12.9-7.1-21.5-17.8-21.5c-10.7,0-17.8,8.6-17.8,21.5c0,12.8,7.1,21.3,17.8,21.3
			C1953.9,272.2,1961.1,263.7,1961.1,251z"/>
		<path d="M1986.6,257.6v-34.7h9.5v33.5c0,10.5,3.7,15.5,12.9,15.5c6.4,0,11.2-3,17.4-10.2v-38.8h9.5v55.9h-7.9l-0.8-9.8h-0.5
			c-5.6,6.6-12.2,11.2-20.8,11.2C1992.7,280.2,1986.6,272.4,1986.6,257.6z"/>
		<path d="M2057.4,222.9h7.8l0.8,7.1h0.3c5.2-4.9,12.5-8.5,19.3-8.5c15.1,0,23.1,11.2,23.1,28.5c0,19-12,30.1-25.4,30.1
			c-5.2,0-11.6-2.6-16.7-7.2h-0.2l0.5,10.6v18.9h-9.5L2057.4,222.9L2057.4,222.9z M2099,250c0-12.3-4.6-20.5-15.8-20.5
			c-4.9,0-10.7,2.5-16.3,8.3v27.8c5.2,4.7,11,6.4,14.8,6.4C2091.7,272.1,2099,263.8,2099,250z"/>
	</g>
</g>
<g>
	<g>
		<path d="M207.7,133.3l1.5-0.5l-1.6-4.9l-1.5,0.5l-0.2-0.7l3.9-1.3l0.2,0.7l-1.5,0.5l1.6,4.9l1.5-0.5l0.2,0.7l-3.9,1.3L207.7,133.3
			z"/>
		<path d="M212.6,127.5l0.7-0.1l0.2,0.8l0,0c0.4-0.6,0.9-1.1,1.7-1.2c1.1-0.2,1.8,0.4,2,1.7l0.5,3l-0.8,0.1l-0.5-2.9
			c-0.1-0.9-0.5-1.3-1.3-1.2c-0.6,0.1-0.9,0.4-1.4,1.1l0.5,3.3l-0.8,0.1L212.6,127.5z"/>
		<path d="M219.1,126.7l1.4-0.1h2.8v0.7l-4.2,0.1V126.7z M220.5,126.2c0-1.2,0.6-2,1.9-2c0.5,0,0.9,0.1,1.4,0.3l-0.2,0.6
			c-0.4-0.2-0.7-0.2-1.1-0.2c-0.9,0-1.2,0.5-1.2,1.3l0.1,5.3h-0.8L220.5,126.2z"/>
		<path d="M225,129.2c0.3-1.6,1.6-2.3,2.9-2.1c1.4,0.2,2,1.3,1.8,2.6c0,0.2-0.1,0.4-0.1,0.5l-4.1-0.7l0.1-0.6l3.6,0.6l-0.2,0.2
			c0.2-1.1-0.3-1.8-1.2-1.9s-1.8,0.4-2,1.6s0.5,2,1.6,2.2c0.6,0.1,1.1,0,1.5-0.2l0.2,0.6c-0.5,0.2-1.2,0.4-1.9,0.3
			C225.7,131.9,224.7,130.8,225,129.2z"/>
		<path d="M232.5,128.2l0.7,0.2l-0.3,1.1l0,0c0.7-0.6,1.6-0.8,2.5-0.5c0.3,0.1,0.6,0.3,0.8,0.5l-0.4,0.6c-0.3-0.2-0.4-0.3-0.8-0.4
			c-0.7-0.2-1.5-0.1-2.3,0.7l-0.9,2.7l-0.8-0.3L232.5,128.2z"/>
		<path d="M236.8,132.3c0.7-1.4,2.2-1.7,3.4-1.1c1.2,0.7,1.5,1.8,0.9,3.1c-0.1,0.2-0.2,0.3-0.3,0.4l-3.6-1.9l0.3-0.6l3.2,1.7
			l-0.3,0.1c0.5-1,0.3-1.8-0.5-2.2s-1.8-0.2-2.4,0.9c-0.6,1.1-0.2,2.1,0.8,2.6c0.5,0.3,1,0.3,1.5,0.3v0.6c-0.6,0.1-1.2,0-1.9-0.4
			C236.6,135.1,236.1,133.8,236.8,132.3z"/>
		<path d="M243.8,133.5l0.5,0.4l-0.4,0.7l0,0c0.7-0.1,1.4-0.1,2,0.4c0.9,0.7,0.9,1.6,0.2,2.6l-1.8,2.4l-0.7-0.5l1.8-2.3
			c0.6-0.7,0.6-1.3-0.1-1.7c-0.5-0.3-0.9-0.4-1.7-0.2l-2,2.7l-0.7-0.5L243.8,133.5z"/>
		<path d="M247.1,139.2c1.2-1.1,2.7-0.9,3.7,0.2c0.5,0.6,0.7,1.2,0.7,1.8l-0.7,0.1c0-0.5-0.2-1-0.5-1.3c-0.8-0.8-1.8-0.8-2.7-0.1
			c-0.8,0.8-0.8,1.8,0,2.6c0.4,0.4,1,0.6,1.5,0.7l-0.1,0.6c-0.7-0.1-1.4-0.3-1.9-0.9C246,141.8,245.9,140.3,247.1,139.2z"/>
		<path d="M251.2,143.6c1.3-0.9,2.8-0.5,3.5,0.6c0.8,1.1,0.5,2.3-0.6,3.1c-0.2,0.1-0.3,0.2-0.4,0.3l-2.4-3.4l0.5-0.4l2.1,3h-0.3
			c0.9-0.7,1.1-1.5,0.6-2.2s-1.5-1-2.5-0.3s-1.1,1.8-0.5,2.6c0.3,0.5,0.7,0.8,1.2,1l-0.3,0.6c-0.5-0.2-1.1-0.6-1.6-1.2
			C249.7,146,249.8,144.5,251.2,143.6z"/>
		<path d="M251.5,151.6c0.7,0.6,1.4,0.7,2.1,0.4l0.8-0.6l-0.5,0.8c-0.2-0.1-0.4-0.2-0.5-0.4c-0.2-0.4-0.1-0.8,0.3-1
			c0.4-0.2,0.8,0,1,0.4c0.3,0.5,0,1-0.8,1.4c-1.1,0.5-2.1,0.3-2.9-0.5L251.5,151.6z"/>
		<path d="M257.2,160.7l0.2,1.6l5.1-0.7l-0.2-1.6l0.7-0.1l0.6,4.1l-0.7,0.1l-0.2-1.6l-5.1,0.7l0.2,1.6l-0.7,0.1l-0.6-4.1
			L257.2,160.7z"/>
		<path d="M262,166.6v0.7l-0.8,0.1l0,0c0.5,0.5,0.9,1.1,0.9,1.8c0,1.1-0.7,1.7-2,1.6h-3V170h2.9c0.9,0,1.4-0.3,1.4-1.1
			c0-0.6-0.3-1-0.8-1.5l-3.4-0.1v-0.8L262,166.6z"/>
		<path d="M261.8,174.6c1.2,0.2,1.8,0.9,1.6,2.3c-0.1,0.5-0.2,0.9-0.5,1.3l-0.6-0.3c0.2-0.4,0.3-0.7,0.4-1.1c0.1-0.9-0.3-1.3-1-1.4
			l-5.2-0.9l0.1-0.8L261.8,174.6z M261.6,173.2l-0.2,1.4l-0.5,2.8l-0.7-0.1l0.7-4.2L261.6,173.2z"/>
		<path d="M258.2,178.4c1.5,0.5,2.1,1.9,1.7,3.1s-1.7,2-3.2,1.5s-2-1.9-1.6-3.1S256.7,177.9,258.2,178.4z M256.9,182.1
			c1.1,0.4,2,0,2.3-0.9s-0.2-1.7-1.3-2.1c-1.1-0.4-2,0-2.2,0.9S255.9,181.8,256.9,182.1z"/>
		<path d="M257.9,186l-0.3,0.6l-1.1-0.5l0,0c0.5,0.8,0.5,1.7,0.1,2.5c-0.2,0.3-0.4,0.6-0.6,0.8l-0.5-0.5c0.3-0.3,0.4-0.4,0.6-0.7
			c0.3-0.6,0.3-1.4-0.3-2.4l-2.5-1.3l0.4-0.7L257.9,186z"/>
		<path d="M255.2,191l-0.4,0.5l-0.6-0.3l0,0c0.2,0.5,0.3,0.9-0.1,1.3c-0.3,0.4-0.7,0.5-1.2,0.2c0.2,0.5,0.3,1,0,1.4
			c-0.4,0.5-1.1,0.6-1.8,0l-2.8-2.1l0.5-0.7l2.7,2c0.4,0.3,0.8,0.4,1,0.1c0.2-0.3,0.1-0.6-0.1-1.1l-2.8-2.1l0.5-0.6l2.7,2
			c0.5,0.3,0.8,0.4,1,0.1c0.2-0.3,0.1-0.6-0.1-1.1l-2.8-2.1l0.5-0.7L255.2,191z"/>
		<path d="M248.5,193.7c0.8,0.8,0.4,1.9-1.3,3.8c0.5,0.5,1.1,0.6,1.8,0c0.5-0.4,0.7-1.1,0.8-1.6l0.6,0.2c-0.1,0.6-0.5,1.4-1.1,2
			c-1,0.9-2,0.8-2.8,0l-2.1-2.1l0.5-0.5l0.5,0.4l0,0c0.1-0.7,0.3-1.4,0.8-1.9C247,193.2,247.9,193.1,248.5,193.7z M246,196.2
			l0.9,0.9c1.4-1.6,1.5-2.3,1.1-2.8c-0.4-0.4-0.9-0.2-1.3,0.2C246.3,194.9,246.1,195.5,246,196.2z"/>
		<path d="M243.5,199l1.3,1.9l1.1-0.8l0.4,0.5l-1.1,0.9l0.8,1.3l-0.6,0.4l-0.9-1.3l-1.9,1.4l-0.4-0.5l1.9-1.4l-1.3-1.9
			c-0.5-0.7-1-0.9-1.8-0.4c-0.4,0.3-0.6,0.5-0.8,0.8l-0.5-0.4c0.3-0.4,0.6-0.8,1.1-1.1C242,197.6,242.8,198,243.5,199z"/>
		<path d="M238.4,204.8l2-1l0.3,0.6l-2.8,1.4l-2.1-4.4l0.7-0.4L238.4,204.8z M239.8,206.7c0.2,0.3,0,0.7-0.3,0.9s-0.7,0.1-0.9-0.3
			c-0.2-0.3,0-0.7,0.3-0.9C239.2,206.3,239.6,206.4,239.8,206.7z"/>
		<path d="M234.4,204.6c0.5,1.6-0.3,2.8-1.6,3.1s-2.6-0.2-3-1.8c-0.5-1.5,0.3-2.8,1.6-3.1S233.9,203.1,234.4,204.6z M230.6,205.8
			c0.3,1.1,1.1,1.6,2,1.3s1.3-1.2,0.9-2.2c-0.3-1.1-1.1-1.6-2-1.3C230.7,203.8,230.3,204.7,230.6,205.8z"/>
		<path d="M228.4,208.8l-0.7,0.1l-0.2-0.8l0,0c-0.4,0.6-0.9,1.1-1.7,1.2c-1.1,0.1-1.8-0.5-1.9-1.7l-0.4-3l0.8-0.1l0.4,2.9
			c0.1,0.9,0.5,1.3,1.3,1.2c0.6-0.1,0.9-0.4,1.4-1.1l-0.4-3.4l0.8-0.1L228.4,208.8z"/>
		<path d="M221.1,202.9c-0.9,0.4-1.3,0.9-1.3,1.7l0.2,0.9l-0.5-0.8c0.2-0.2,0.4-0.2,0.6-0.2c0.4,0,0.8,0.3,0.8,0.8s-0.4,0.7-0.8,0.7
			c-0.6,0-0.9-0.5-0.9-1.3c0-1.2,0.7-2,1.8-2.3L221.1,202.9z"/>
		<path d="M210.4,204.2c-0.4,1-1.5,1.2-3.9,0.5c-0.2,0.6-0.1,1.3,0.8,1.6c0.6,0.2,1.3,0.2,1.8,0l0.1,0.6c-0.6,0.1-1.5,0.2-2.3-0.1
			c-1.2-0.5-1.6-1.4-1.2-2.6l1-2.8l0.6,0.2l-0.2,0.6l0,0c0.6-0.2,1.4-0.3,2.1-0.1C210.2,202.7,210.7,203.4,210.4,204.2z M207.1,203
			l-0.4,1.2c2,0.6,2.7,0.4,3-0.2c0.2-0.5-0.2-0.9-0.7-1.1C208.4,202.7,207.8,202.8,207.1,203z"/>
		<path d="M203,205.1l-0.6-0.3l0.3-0.7l0,0c-0.7,0.2-1.4,0.3-2.1-0.1c-1-0.6-1.1-1.4-0.5-2.5l1.5-2.6l0.7,0.4l-1.4,2.5
			c-0.5,0.8-0.4,1.3,0.3,1.7c0.5,0.3,1,0.2,1.8,0l1.7-2.9l0.7,0.4L203,205.1z"/>
		<path d="M199.2,200c-1,1.2-2.4,1.3-3.3,0.6c-0.5-0.4-0.7-0.8-0.7-1.4l0,0l-0.5,0.7l-1.2,1.5l-0.6-0.5l4.5-5.5l0.5,0.4l-0.3,0.5
			l0,0c0.6-0.1,1.2,0,1.7,0.4C200.2,197.5,200.3,198.8,199.2,200z M197.1,196.9l-1.5,1.9c0.1,0.6,0.3,1,0.6,1.2
			c0.7,0.5,1.6,0.4,2.3-0.5s0.7-1.8,0.1-2.3C198.3,196.8,197.8,196.8,197.1,196.9z"/>
		<path d="M186.9,193.5l-0.9-1.4c-1.1-1.7-0.7-3.2,1.1-4.3s3.4-0.9,4.4,0.7l0.9,1.4L186.9,193.5z M191,189c-0.8-1.2-2-1.3-3.4-0.4
			c-1.4,0.9-1.7,2-0.9,3.3l0.4,0.6l4.3-2.8L191,189z"/>
		<path d="M187.2,186.2c-1.4,0.6-2.8,0-3.3-1.2c-0.6-1.3-0.1-2.4,1.2-3c0.2-0.1,0.3-0.1,0.5-0.2l1.7,3.8l-0.6,0.3l-1.5-3.3l0.3,0.1
			c-1,0.5-1.3,1.2-1,2c0.4,0.8,1.3,1.3,2.4,0.8c1.2-0.5,1.4-1.5,1-2.5c-0.2-0.5-0.6-0.9-1-1.2l0.4-0.5c0.5,0.3,1,0.8,1.3,1.5
			C189.1,184.1,188.7,185.5,187.2,186.2z"/>
		<path d="M184.8,180.4c-1.6,0.4-2.8-0.5-3.2-2c-0.2-0.8,0-1.4,0.2-1.9l0.6,0.3c-0.2,0.5-0.3,0.9-0.2,1.4c0.3,1.1,1.2,1.6,2.3,1.3
			s1.6-1.2,1.3-2.3c-0.2-0.6-0.5-1-1-1.3l0.4-0.5c0.6,0.4,1,1,1.2,1.7C187,178.7,186.4,180,184.8,180.4z"/>
		<path d="M179,172.9c-0.4,0-0.7-0.2-0.7-0.6c0-0.4,0.2-0.7,0.6-0.7c0.4,0,0.7,0.2,0.7,0.6C179.6,172.5,179.4,172.9,179,172.9z
			 M181.3,172.3l0.2,2.2l-0.7,0.1l-0.3-3.1l4.8-0.5l0.1,0.8L181.3,172.3z"/>
		<path d="M184.6,168.5l-0.5-0.4c0.4-0.5,0.7-1.2,0.8-2.1c0-0.8-0.3-1.2-0.7-1.3c-0.4,0-0.6,0.2-1,1.5c-0.3,1.3-0.8,1.9-1.5,1.8
			c-0.8,0-1.3-0.8-1.3-2.1c0-0.7,0.4-1.5,0.7-1.9l0.5,0.4c-0.3,0.4-0.6,1-0.6,1.6c0,0.8,0.3,1.1,0.6,1.2c0.4,0,0.6-0.4,0.9-1.4
			c0.4-1.6,0.8-2,1.6-1.9c0.8,0,1.4,0.8,1.4,2.2C185.4,167.1,185,168,184.6,168.5z"/>
		<path d="M179.6,159.5c-0.4-0.1-0.6-0.4-0.5-0.8c0.1-0.4,0.4-0.6,0.8-0.5c0.4,0.1,0.6,0.4,0.5,0.8
			C180.3,159.3,180,159.5,179.6,159.5z M182,159.6l-0.4,2.2l-0.7-0.1l0.6-3l4.8,1l-0.2,0.8L182,159.6z"/>
		<path d="M184.5,156.5c-1.5-0.6-2-1.9-1.6-3.1s1.7-1.9,3.2-1.4c1.5,0.6,2,1.9,1.5,3.1S186,157,184.5,156.5z M185.9,152.8
			c-1-0.4-2-0.1-2.3,0.8c-0.3,0.9,0.2,1.7,1.2,2.1c1,0.4,2,0.1,2.3-0.8S186.9,153.1,185.9,152.8z"/>
		<path d="M184.8,149.3l0.3-0.6l0.7,0.3l0,0c-0.2-0.7-0.3-1.4,0.1-2.1c0.6-1,1.4-1.1,2.5-0.5l2.6,1.5l-0.4,0.7l-2.5-1.4
			c-0.8-0.5-1.3-0.4-1.7,0.3c-0.3,0.5-0.2,1,0,1.8l3,1.7l-0.4,0.7L184.8,149.3z"/>
	</g>
</g>
<path class="st3" d="M201,151.7h14v4.6h-3.7l8.7,12.3l8.7-12.3h-3.8v-4.6h14v4.6H235l-11,15.2v9.2h6.1v5.2h-20.2v-5.2h6.1v-9.2
	l-11-15.2h-3.9L201,151.7z"/>
<path class="st4" d="M201,151.7h14v4.6h-3.7l8.7,12.3l8.7-12.3h-3.8v-4.6h14v4.6H235l-11,15.2v9.2h6.1v5.2h-20.2v-5.2h6.1v-9.2
	l-11-15.2h-3.9L201,151.7z"/>
<path class="st5" d="M201,151.7h14v4.6h-3.7l8.7,12.3l8.7-12.3h-3.8v-4.6h14v4.6H235l-11,15.2v9.2h6.1v5.2h-20.2v-5.2h6.1v-9.2
	l-11-15.2h-3.9L201,151.7z"/>
<image style="overflow:visible;" width="2351" height="581" xlink:href="../../../../Downloads/yale-logo-2.jpg"  transform="matrix(0.5796 0 0 0.6706 2189.4993 0)">
</image>
</svg>
